<?xml version="1.0" encoding="UTF-8" standalone="no"?>
<!-- Created with Inkscape (http://www.inkscape.org/) -->

<svg
   version="1.1"
   id="svg480"
   width="1920"
   height="1080"
   viewBox="0 0 1920 1080"
   xmlns="http://www.w3.org/2000/svg"
   xmlns:svg="http://www.w3.org/2000/svg">
  <defs
     id="defs484" />
  <g
     id="g486">
    <path
       style="fill:#ffffff;fill-rule:evenodd;stroke-width:3.65564"
       d="M 856.6789,920.16927 V 841.30806 H 722.2131 587.7473 V 686.85075 532.39346 l 24.35977,1.02077 24.35977,1.02081 1.02011,132.86401 1.02022,132.864 H 747.59298 856.6789 V 539.67866 279.19425 l 20.46213,-8.2428 c 24.32385,-9.79838 54.91449,-21.88135 71.13039,-28.09586 6.431,-2.46452 25.2929,-9.99969 41.9152,-16.74478 16.62238,-6.74508 30.99318,-12.26378 31.93518,-12.26378 0.942,0 16.2814,-6.03732 34.0874,-13.41628 17.806,-7.37893 41.5004,-16.87906 52.6546,-21.11135 44.4294,-16.85821 43.8301,-16.90362 -223.07558,-16.90362 H 638.4156 V 294.42263 426.42945 H 613.08145 587.7473 V 272.13575 117.84206 h 333.24122 333.24128 v 363.21631 363.2163 l -8.3469,2.33054 c -4.5908,1.28182 -22.9688,8.32898 -40.8399,15.66046 -17.8715,7.33139 -33.3036,13.32988 -34.2943,13.32988 -0.9906,0 -20.2557,7.71466 -42.8114,17.14374 -22.556,9.42904 -41.7912,17.14372 -42.7452,17.14372 -0.9538,0 -18.9971,7.07493 -40.0957,15.72206 -21.099,8.64713 -44.5004,18.089 -52.00298,20.98196 -7.5029,2.89297 -23.2879,9.12173 -35.0781,13.84171 -74.34562,29.76305 -97.09279,38.60176 -99.34527,38.60176 -1.09518,0 -1.99115,-35.48755 -1.99115,-78.86123 z m 54.56583,-366.87612 c 0,-1.8858 -3.06937,-3.40513 -6.82079,-3.37625 -5.829,0.045 -5.97065,0.53578 -0.97438,3.37625 7.35549,4.18174 7.79517,4.18174 7.79517,0 z m -17.37882,-6.62937 c -1.41294,-2.01127 -4.43424,-3.65689 -6.71382,-3.65689 -2.58452,0 -2.28884,1.96737 0.78544,5.22602 5.3456,5.66636 10.12315,4.40182 5.92838,-1.56913 z m -7.50796,-17.94392 c 0.53047,-12.85232 9.98708,-19.97976 26.606,-20.05294 8.40957,-0.0371 10.32167,-0.94407 6.48997,-3.07855 -6.20678,-3.45745 -25.07572,1.36421 -31.34518,8.00982 -5.5331,5.86505 -9.87722,25.98193 -5.60861,25.97216 1.87571,-0.002 3.61177,-4.88704 3.85782,-10.85049 z"
       id="path676" />
    <path
       style="fill:#ffffff;fill-rule:evenodd;stroke-width:3.65564"
       d="m 299.6624,551.33273 c -42.87313,-25.31486 -81.20602,-49.76902 -85.18416,-54.34256 -9.58962,-11.0249 -5.57407,-27.83774 8.54607,-35.78191 5.70878,-3.21179 12.58236,-7.68725 15.27462,-9.94544 2.69227,-2.25817 8.39244,-5.0823 12.66706,-6.2758 4.27464,-1.19354 7.77204,-3.42182 7.77204,-4.95177 0,-1.52995 5.26172,-4.69904 11.69268,-7.04243 6.43098,-2.34339 11.69267,-5.42924 11.69267,-6.85749 0,-1.42824 5.2617,-4.51411 11.69269,-6.8575 6.43095,-2.34339 11.69268,-5.51248 11.69268,-7.04243 0,-1.52994 3.4974,-3.75823 7.77202,-4.95174 4.27464,-1.19352 10.02213,-3.99765 12.77226,-6.23138 7.90949,-6.42432 26.77769,-17.56058 44.22402,-26.10156 15.53752,-7.60652 16.38203,-7.66476 26.50771,-1.82817 16.2637,9.37459 21.75318,22.27689 21.75318,51.12813 v 25.8859 l 121.79871,0.0137 c 114.8577,0.0114 122.52605,0.40297 134.56283,6.85909 14.79898,7.93761 21.48336,20.58754 17.76529,33.61988 -6.76925,23.72664 -12.45615,24.65457 -151.09754,24.65457 H 418.53794 v 25.55429 c 0,35.64492 -12.29551,56.63382 -33.12925,56.55292 -4.28732,-0.016 -42.87315,-20.74241 -85.74629,-46.05728 z"
       id="path678" />
  </g>
</svg>
