<?xml version="1.0" encoding="UTF-8" standalone="no"?>
<svg
   width="512"
   height="512"
   viewBox="0 0 512 512"
   version="1.1"
   id="svg6074"
   xmlns="http://www.w3.org/2000/svg"
   xmlns:svg="http://www.w3.org/2000/svg">
  <defs
     id="defs6078" />
  <path
     style="fill:#ffffff;fill-opacity:1;fill-rule:evenodd;stroke-width:0.611708"
     d="m 248.36265,245.91581 c 0,-0.35353 -1.93985,-0.61171 -4.59612,-0.61171 -2.52786,0 -5.0741,-0.26178 -5.6583,-0.58174 -0.58421,-0.31996 -2.64499,-0.75267 -4.57951,-0.96158 -1.93453,-0.20891 -3.51733,-0.63529 -3.51733,-0.94753 0,-0.31223 -0.53429,-0.56769 -1.18731,-0.56769 -0.65303,0 -1.34761,-0.25936 -1.54353,-0.57636 -0.19592,-0.317 -1.58851,-0.76116 -3.09465,-0.98702 -1.50613,-0.22586 -2.73843,-0.62403 -2.73843,-0.88483 0,-0.26079 -0.96344,-0.65492 -2.14098,-0.87582 -1.17754,-0.22091 -2.14098,-0.66445 -2.14098,-0.98564 0,-0.3212 -0.4129,-0.584 -0.91756,-0.584 -0.50466,0 -0.91756,-0.24543 -0.91756,-0.54539 0,-0.29997 -0.68817,-0.71811 -1.52927,-0.92922 -0.8411,-0.2111 -1.52927,-0.65384 -1.52927,-0.98387 0,-0.33003 -0.41291,-0.60006 -0.91757,-0.60006 -0.50466,0 -0.91756,-0.27527 -0.91756,-0.61171 0,-0.33644 -0.48936,-0.61171 -1.08747,-0.61171 -0.59811,0 -1.55886,-0.55053 -2.13499,-1.22341 -0.57614,-0.67288 -1.39779,-1.22342 -1.82589,-1.22342 -0.4281,0 -1.29515,-0.68817 -1.92679,-1.52927 -0.63164,-0.8411 -1.66042,-1.52927 -2.28617,-1.52927 -0.62575,0 -1.13773,-0.25732 -1.13773,-0.57182 0,-0.46856 -3.29017,-3.90832 -7.47024,-7.80988 -1.22067,-1.13934 -2.3171,-2.53816 -2.3171,-2.95615 0,-0.2083 -0.82581,-1.20453 -1.83513,-2.21385 -1.00931,-1.00932 -1.83512,-2.16152 -1.83512,-2.56044 0,-0.39893 -0.68817,-1.24212 -1.52927,-1.87376 -0.8411,-0.63164 -1.52927,-1.64186 -1.52927,-2.24494 0,-0.60308 -0.51776,-1.26085 -1.15058,-1.4617 -0.66403,-0.21075 -1.31119,-1.16828 -1.53041,-2.26436 -0.20891,-1.04456 -0.91144,-2.36024 -1.56117,-2.92376 -0.64974,-0.56351 -1.36724,-1.76525 -1.59445,-2.67052 -0.22721,-0.90527 -0.65853,-1.64595 -0.9585,-1.64595 -0.29997,0 -0.54539,-0.30249 -0.54539,-0.67219 0,-0.81184 -1.91423,-5.01515 -2.47966,-5.4449 -0.22133,-0.16822 -0.59223,-1.33811 -0.82423,-2.59976 -0.23199,-1.26165 -0.6846,-2.29391 -1.00579,-2.29391 -0.3212,0 -0.58399,-0.68817 -0.58399,-1.52927 0,-0.8411 -0.24944,-1.52927 -0.55431,-1.52927 -0.30487,0 -0.7436,-1.37634 -0.97496,-3.05854 -0.23137,-1.6822 -0.6701,-3.05854 -0.97497,-3.05854 -0.30487,0 -0.55431,-0.68818 -0.55431,-1.52928 0,-0.8411 -0.25335,-1.52927 -0.56302,-1.52927 -0.30966,0 -0.75912,-1.85806 -0.99881,-4.12903 -0.23969,-2.27097 -0.66611,-4.27773 -0.9476,-4.45946 -0.28149,-0.18173 -0.69921,-3.41614 -0.92827,-7.18757 -0.22906,-3.77144 -0.65036,-6.85715 -0.93622,-6.85715 -0.67613,0 -0.68109,-26.74325 -0.005,-27.16108 0.28309,-0.17496 0.69634,-4.92356 0.91834,-10.55244 0.22199,-5.6289 0.6369,-10.38801 0.92202,-10.57583 0.28512,-0.18781 0.70523,-2.405989 0.93358,-4.929289 0.22835,-2.523297 0.6829,-4.679569 1.0101,-4.791715 0.32721,-0.112147 0.59492,-1.144405 0.59492,-2.293907 0,-1.149503 0.24402,-2.090004 0.54226,-2.090004 0.29824,0 0.72801,-1.23871 0.95504,-2.752689 0.22704,-1.513978 0.67119,-2.752688 0.98702,-2.752688 0.31583,0 0.57423,-0.688172 0.57423,-1.529271 0,-0.841099 0.24401,-1.529271 0.54225,-1.529271 0.29824,0 0.72801,-1.23871 0.95504,-2.752688 0.22704,-1.513979 0.6712,-2.752688 0.98702,-2.752688 0.31583,0 0.57423,-0.412904 0.57423,-0.917563 0,-0.50466 0.2534,-0.917563 0.5631,-0.917563 0.30971,0 0.74449,-0.825806 0.96617,-1.835125 0.22168,-1.009319 0.65646,-1.835126 0.96617,-1.835126 0.3097,0 0.5631,-0.559177 0.5631,-1.242615 0,-0.683438 0.41291,-1.401061 0.91756,-1.594718 0.50466,-0.193655 0.91757,-0.843738 0.91757,-1.444626 0,-0.600889 0.4129,-1.250971 0.91756,-1.444627 0.50466,-0.193656 0.91756,-0.646926 0.91756,-1.007267 0,-0.519513 4.79478,-5.800895 8.60331,-9.476422 0.34861,-0.336439 1.09408,-1.093429 1.65659,-1.682198 0.56251,-0.588769 1.32484,-1.07049 1.69405,-1.07049 0.36922,0 1.26966,-0.688172 2.00099,-1.529271 0.73133,-0.841099 1.74441,-1.529271 2.25129,-1.529271 0.50689,0 0.92161,-0.275269 0.92161,-0.611709 0,-0.336439 0.4129,-0.611708 0.91756,-0.611708 0.50466,0 0.91757,-0.270025 0.91757,-0.600054 0,-0.33003 0.68817,-0.772775 1.52927,-0.983877 0.8411,-0.211103 1.52927,-0.594841 1.52927,-0.852754 0,-0.257912 0.89253,-0.647437 1.9834,-0.865612 2.39555,-0.479108 5.3571,-1.741187 5.3571,-2.282949 0,-0.21611 1.23229,-0.577721 2.73843,-0.803581 1.50614,-0.225859 2.89873,-0.670017 3.09464,-0.987018 0.19592,-0.317001 1.16578,-0.576365 2.15524,-0.576365 0.98947,0 1.79903,-0.256352 1.79903,-0.56967 0,-0.313318 2.20215,-0.761766 4.89366,-0.99655 2.69152,-0.234784 4.89367,-0.666605 4.89367,-0.959602 0,-0.292996 1.92688,-0.532721 4.28196,-0.532721 2.44683,0 4.28196,-0.262161 4.28196,-0.611708 0,-0.387416 4.48586,-0.611709 12.23417,-0.611709 7.74831,0 12.23417,0.224293 12.23417,0.611709 0,0.349547 1.83513,0.611708 4.28196,0.611708 2.35508,0 4.28196,0.239725 4.28196,0.532721 0,0.292997 2.20215,0.724818 4.89367,0.959602 2.69151,0.234784 4.89366,0.683232 4.89366,0.99655 0,0.313318 0.80956,0.56967 1.79903,0.56967 0.98946,0 1.95932,0.259364 2.15524,0.576365 0.19591,0.317001 1.5885,0.761159 3.09464,0.987018 1.50614,0.22586 2.73843,0.654667 2.73843,0.952906 0,0.298239 0.55054,0.542253 1.22342,0.542253 0.67288,0 1.22341,0.251073 1.22341,0.55794 0,0.306868 1.10108,0.743966 2.44684,0.971331 1.34576,0.227365 2.44683,0.634622 2.44683,0.905017 0,0.270394 0.68817,0.664346 1.52927,0.875449 0.8411,0.211102 1.52927,0.653847 1.52927,0.983877 0,0.330029 0.41291,0.600054 0.91757,0.600054 0.50466,0 0.91756,0.275269 0.91756,0.611708 0,0.33644 0.41473,0.611709 0.92161,0.611709 0.50688,0 1.51996,0.688172 2.25129,1.529271 0.73133,0.841099 1.63177,1.529271 2.00098,1.529271 0.36923,0 1.13155,0.481721 1.69406,1.07049 0.56251,0.588769 1.30798,1.345759 1.6566,1.682198 3.80852,3.675527 8.6033,8.956909 8.6033,9.476422 0,0.360341 0.4129,0.813611 0.91756,1.007267 0.50466,0.193656 0.91756,0.843738 0.91756,1.444627 0,0.600888 0.41291,1.250971 0.91757,1.444626 0.50465,0.193657 0.91756,0.91128 0.91756,1.594718 0,0.683438 0.2534,1.242615 0.5631,1.242615 0.30971,0 0.74449,0.825807 0.96617,1.835126 0.22168,1.009319 0.65646,1.835125 0.96617,1.835125 0.3097,0 0.5631,0.412903 0.5631,0.917563 0,0.504659 0.2584,0.917563 0.57423,0.917563 0.31582,0 0.75998,1.238709 0.98702,2.752688 0.22703,1.513978 0.6568,2.752688 0.95504,2.752688 0.29824,0 0.54225,0.412903 0.54225,0.917563 0,0.504659 0.24355,0.917562 0.54123,0.917562 0.29767,0 0.73038,1.513979 0.96158,3.364397 0.23119,1.850418 0.67581,3.364397 0.98805,3.364397 0.31222,0 0.56769,0.940501 0.56769,2.090004 0,1.149502 0.26771,2.18176 0.59491,2.293907 0.32721,0.112146 0.78175,2.268418 1.0101,4.791715 0.22836,2.5233 0.64847,4.741479 0.93359,4.929289 0.28511,0.18782 0.70002,4.94693 0.92203,10.57583 0.22199,5.62888 0.63524,10.37748 0.91833,10.55244 0.67605,0.41783 0.67109,27.16108 -0.005,27.16108 -0.28586,0 -0.70716,3.08571 -0.93622,6.85715 -0.22906,3.77143 -0.64678,7.00584 -0.92827,7.18757 -0.28149,0.18173 -0.70791,2.18849 -0.9476,4.45946 -0.23969,2.27097 -0.68916,4.12903 -0.99882,4.12903 -0.30966,0 -0.56302,0.68817 -0.56302,1.52927 0,0.8411 -0.24943,1.52928 -0.5543,1.52928 -0.30487,0 -0.74361,1.37634 -0.97497,3.05854 -0.23136,1.6822 -0.6701,3.05854 -0.97496,3.05854 -0.30487,0 -0.55431,0.68817 -0.55431,1.52927 0,0.8411 -0.2628,1.52927 -0.58399,1.52927 -0.32119,0 -0.7738,1.03226 -1.0058,2.29391 -0.23199,1.26165 -0.60289,2.43154 -0.82423,2.59976 -0.56557,0.42975 -2.4798,4.63306 -2.4798,5.4449 0,0.3697 -0.24542,0.67219 -0.54539,0.67219 -0.29997,0 -0.73129,0.74068 -0.9585,1.64595 -0.22721,0.90527 -0.94471,2.10701 -1.59445,2.67052 -0.64973,0.56352 -1.35226,1.8792 -1.56117,2.92376 -0.21922,1.09608 -0.86638,2.05361 -1.53041,2.26436 -0.63282,0.20085 -1.15058,0.85862 -1.15058,1.4617 0,0.60308 -0.68817,1.6133 -1.52927,2.24494 -0.8411,0.63164 -1.52927,1.47483 -1.52927,1.87376 0,0.39892 -0.82581,1.55112 -1.83512,2.56044 -1.00932,1.00932 -1.83513,2.00555 -1.83513,2.21385 0,0.41445 -1.08368,1.80119 -2.31011,2.95615 -4.02067,3.7864 -7.47723,7.41538 -7.47723,7.85023 0,0.29231 -0.51198,0.53147 -1.13773,0.53147 -0.62575,0 -1.65453,0.68817 -2.28617,1.52927 -0.63164,0.8411 -1.49869,1.52927 -1.9268,1.52927 -0.42809,0 -1.24974,0.55054 -1.82588,1.22342 -0.57614,0.67288 -1.53688,1.22341 -2.13499,1.22341 -0.59811,0 -1.08747,0.27527 -1.08747,0.61171 0,0.33644 -0.4129,0.61171 -0.91756,0.61171 -0.50466,0 -0.91757,0.27003 -0.91757,0.60006 0,0.33003 -0.68817,0.77277 -1.52927,0.98387 -0.8411,0.21111 -1.52927,0.62925 -1.52927,0.92922 0,0.29996 -0.4129,0.54539 -0.91756,0.54539 -0.50466,0 -0.91756,0.2628 -0.91756,0.584 0,0.32119 -0.96344,0.76473 -2.14098,0.98564 -1.17754,0.2209 -2.14098,0.61503 -2.14098,0.87582 0,0.2608 -1.2323,0.65897 -2.73843,0.88483 -1.50614,0.22586 -2.89873,0.67002 -3.09465,0.98702 -0.19592,0.317 -0.8905,0.57636 -1.54353,0.57636 -0.65302,0 -1.18731,0.25546 -1.18731,0.56769 0,0.31224 -1.5828,0.73862 -3.51733,0.94753 -1.93452,0.20891 -3.9953,0.64162 -4.57951,0.96158 -0.5842,0.31996 -3.13044,0.58174 -5.6583,0.58174 -2.65627,0 -4.59612,0.25818 -4.59612,0.61171 0,0.33644 -1.10107,0.61171 -2.44683,0.61171 -1.34576,0 -2.44683,-0.27527 -2.44683,-0.61171 z"
     id="path6580" />
  <path
     style="fill:#ffffff;fill-opacity:1;fill-rule:evenodd;stroke-width:0.611708"
     d="m 229.29473,476.61686 c 0,-0.37759 -3.1605,-0.61171 -8.25807,-0.61171 -4.54193,0 -8.25806,-0.23561 -8.25806,-0.52358 0,-0.28796 -4.33549,-0.71995 -9.63441,-0.95997 -5.29892,-0.24002 -9.72616,-0.69258 -9.83831,-1.00569 -0.11215,-0.31312 -1.95397,-0.5693 -4.09293,-0.5693 -2.13897,0 -4.03882,-0.24237 -4.22191,-0.5386 -0.18307,-0.29623 -2.67674,-0.73384 -5.54147,-0.97248 -2.86473,-0.23863 -5.20861,-0.64485 -5.20861,-0.90272 0,-0.25786 -2.27096,-0.65712 -5.04659,-0.88724 -2.77563,-0.23011 -5.13835,-0.68259 -5.2505,-1.00551 -0.11215,-0.32291 -1.00677,-0.58712 -1.98805,-0.58712 -0.98128,0 -1.78415,-0.24293 -1.78415,-0.53984 0,-0.29691 -2.06452,-0.7333 -4.58781,-0.96975 -2.5233,-0.23646 -4.58782,-0.6817 -4.58782,-0.98943 0,-0.30773 -0.68817,-0.55952 -1.52927,-0.55952 -0.8411,0 -1.52927,-0.24944 -1.52927,-0.55431 0,-0.30486 -1.37634,-0.7436 -3.05854,-0.97496 -1.6822,-0.23136 -3.05855,-0.6701 -3.05855,-0.97497 0,-0.30487 -0.8258,-0.5543 -1.83512,-0.5543 -1.00932,0 -1.83513,-0.27202 -1.83513,-0.60448 0,-0.33246 -1.10107,-0.78055 -2.44683,-0.99575 -1.34576,-0.21519 -2.44683,-0.60009 -2.44683,-0.85533 0,-0.25524 -1.23871,-0.64983 -2.75269,-0.87686 -1.51398,-0.22704 -2.75269,-0.6712 -2.75269,-0.98702 0,-0.31583 -0.4129,-0.57423 -0.91756,-0.57423 -0.50466,0 -0.91757,-0.24009 -0.91757,-0.53353 0,-0.29344 -1.10107,-0.7096 -2.44683,-0.92479 -1.34576,-0.21519 -2.44683,-0.66328 -2.44683,-0.99574 0,-0.33247 -0.41291,-0.60448 -0.91757,-0.60448 -0.50466,0 -0.91756,-0.24464 -0.91756,-0.54363 0,-0.299 -0.96344,-0.72438 -2.14098,-0.94528 -1.17754,-0.22091 -2.14098,-0.66445 -2.14098,-0.98564 0,-0.3212 -0.4129,-0.58399 -0.91756,-0.58399 -0.50466,0 -0.91756,-0.27003 -0.91756,-0.60006 0,-0.33003 -0.68818,-0.77277 -1.52928,-0.98388 -0.84109,-0.2111 -1.52927,-0.59941 -1.52927,-0.8629 0,-0.26349 -0.68817,-0.6518 -1.52927,-0.8629 -0.8411,-0.21111 -1.52927,-0.65385 -1.52927,-0.98388 0,-0.33003 -0.4129,-0.60005 -0.91756,-0.60005 -0.50466,0 -0.91756,-0.25672 -0.91756,-0.57049 0,-0.31377 -0.60189,-0.76152 -1.33753,-0.995 -0.73564,-0.23349 -2.21331,-1.35311 -3.2837,-2.48806 -1.070398,-1.13495 -2.188938,-2.0655 -2.485648,-2.06789 -0.80749,-0.007 -6.96242,-6.25601 -6.96242,-7.06938 0,-0.23779 -0.68817,-1.07011 -1.52927,-1.84961 -0.8411,-0.77951 -1.52927,-1.84333 -1.52927,-2.36406 0,-0.52072 -0.27527,-0.94677 -0.61171,-0.94677 -0.38515,0 -0.61171,-4.07806 -0.61171,-11.01075 0,-6.93269 0.22656,-11.01075 0.61171,-11.01075 0.38689,0 0.61171,-4.38392 0.61171,-11.92832 0,-6.56057 0.23229,-11.92831 0.5162,-11.92831 0.28391,0 0.70407,-5.02366 0.93369,-11.16368 0.23552,-6.29771 0.67709,-11.25256 1.01307,-11.36758 0.32757,-0.11215 0.59558,-1.83258 0.59558,-3.82318 0,-1.99061 0.23488,-3.61928 0.52195,-3.61928 0.28707,0 0.70207,-2.13333 0.92222,-4.74074 0.22015,-2.60741 0.67344,-4.8325 1.00732,-4.94464 0.33388,-0.11215 0.60706,-1.2658 0.60706,-2.56367 0,-1.29786 0.25936,-2.52004 0.57636,-2.71596 0.317,-0.19592 0.76116,-1.58851 0.98702,-3.09465 0.22586,-1.50613 0.62884,-2.73843 0.8955,-2.73843 0.26667,0 0.67415,-1.37634 0.90551,-3.05854 0.23136,-1.6822 0.6701,-3.05854 0.97496,-3.05854 0.30487,0 0.55431,-0.68817 0.55431,-1.52927 0,-0.8411 0.2534,-1.52927 0.56311,-1.52927 0.3097,0 0.744478,-0.82581 0.966158,-1.83513 0.22169,-1.00932 0.65646,-1.83513 0.96617,-1.83513 0.30971,0 0.5631,-0.55053 0.5631,-1.22341 0,-0.67288 0.2534,-1.22342 0.56311,-1.22342 0.30971,0 0.74448,-0.82581 0.96616,-1.83513 0.22169,-1.00931 0.63791,-1.83512 0.92495,-1.83512 0.28703,0 0.71744,-0.61936 0.95646,-1.37634 0.23902,-0.75699 0.90637,-1.78925 1.48299,-2.29391 0.57663,-0.50466 1.2395,-1.52284 1.47306,-2.26262 0.23356,-0.73978 0.94702,-1.51085 1.58548,-1.71349 0.63846,-0.20264 1.33705,-0.92361 1.55241,-1.60217 0.4633,-1.45972 6.64176,-7.87931 7.58336,-7.87931 0.35836,0 0.65157,-0.25672 0.65157,-0.57048 0,-0.31377 0.53646,-0.74076 1.19213,-0.94886 0.65567,-0.2081 1.36239,-0.91482 1.57049,-1.57049 0.2081,-0.65567 0.91899,-1.19213 1.57976,-1.19213 0.66077,0 1.35031,-0.38806 1.53231,-0.86236 0.182,-0.47429 0.99917,-1.03007 1.81593,-1.23507 0.81675,-0.20499 1.48501,-0.64273 1.48501,-0.97276 0,-0.33003 0.4129,-0.60006 0.91756,-0.60006 0.50466,0 0.91756,-0.27002 0.91756,-0.60005 0,-0.33003 0.68817,-0.77278 1.52927,-0.98388 0.8411,-0.2111 1.52927,-0.62925 1.52927,-0.92922 0,-0.29996 0.55054,-0.54539 1.22342,-0.54539 0.67288,0 1.22342,-0.2534 1.22342,-0.56311 0,-0.3097 0.8258,-0.74448 1.83512,-0.96616 1.00932,-0.22169 1.83513,-0.65646 1.83513,-0.96617 0,-0.30971 0.4129,-0.5631 0.91756,-0.5631 0.50466,0 0.91756,-0.24464 0.91756,-0.54363 0,-0.299 0.95182,-0.7222 2.11515,-0.94044 1.16332,-0.21824 2.88375,-0.79772 3.82317,-1.28772 0.93942,-0.49001 2.3274,-0.89262 3.08438,-0.8947 0.75699,-0.002 1.37635,-0.27903 1.37635,-0.61547 0,-0.33644 0.66523,-0.61171 1.4783,-0.61171 0.81305,0 1.57597,-0.29303 1.69535,-0.65117 0.11938,-0.35814 1.38103,-0.80729 2.80366,-0.99811 1.42264,-0.19081 2.58661,-0.58596 2.58661,-0.8781 0,-0.29214 0.68817,-0.53116 1.52927,-0.53116 0.8411,0 1.52927,-0.2616 1.52927,-0.58134 0,-0.31973 1.65161,-0.76819 3.67025,-0.99657 2.01864,-0.22838 3.67025,-0.62793 3.67025,-0.88788 0,-0.25995 1.65211,-0.66438 3.67135,-0.89874 2.01924,-0.23436 3.82474,-0.67429 4.01221,-0.97762 0.18747,-0.30334 1.15042,-0.55152 2.13988,-0.55152 0.98946,0 1.79902,-0.25178 1.79902,-0.55952 0,-0.30773 2.06452,-0.75298 4.58782,-0.98943 2.52329,-0.23645 4.58781,-0.67284 4.58781,-0.96975 0,-0.29692 1.07814,-0.53984 2.39586,-0.53984 1.31772,0 2.48761,-0.23592 2.59976,-0.52426 0.11215,-0.28833 1.90028,-0.71219 3.97362,-0.94189 l 3.76972,-0.41763 3.08287,3.08287 c 1.69559,1.69557 3.33755,3.08287 3.64881,3.08287 0.31127,0 0.8862,0.38589 1.27764,0.85754 0.39144,0.47165 1.44109,1.04061 2.33256,1.26436 0.89148,0.22374 2.06639,0.9205 2.61092,1.54835 0.54452,0.62784 1.73073,1.32743 2.636,1.55464 0.90527,0.22721 1.64596,0.65854 1.64596,0.9585 0,0.29997 0.68817,0.5454 1.52927,0.5454 0.8411,0 1.52927,0.24944 1.52927,0.55431 0,0.30486 1.37634,0.7436 3.05854,0.97496 1.6822,0.23136 3.05854,0.63775 3.05854,0.9031 0,0.26534 2.06452,0.6759 4.58782,0.91235 2.52329,0.23645 4.58781,0.68169 4.58781,0.98943 0,0.31957 5.24665,0.55952 12.23417,0.55952 6.98752,0 12.23417,-0.23995 12.23417,-0.55952 0,-0.30774 2.06452,-0.75298 4.58781,-0.98943 2.5233,-0.23645 4.58782,-0.64701 4.58782,-0.91235 0,-0.26535 1.37634,-0.67174 3.05854,-0.9031 1.6822,-0.23136 3.05854,-0.6701 3.05854,-0.97496 0,-0.30487 0.68817,-0.55431 1.52927,-0.55431 0.8411,0 1.52927,-0.2534 1.52927,-0.56311 0,-0.3097 0.82581,-0.74448 1.83513,-0.96616 1.00932,-0.22169 1.83513,-0.65646 1.83513,-0.96617 0,-0.30971 0.52109,-0.5631 1.15797,-0.5631 0.63688,0 1.31641,-0.41291 1.51007,-0.91757 0.19366,-0.50466 0.91128,-0.91756 1.59472,-0.91756 0.68344,0 1.24261,-0.28391 1.24261,-0.63091 0,-0.34699 0.48172,-0.8157 1.07049,-1.04157 0.58877,-0.22586 2.40207,-1.74215 4.02956,-3.36952 l 2.95908,-2.95886 3.76972,0.41763 c 2.07334,0.2297 3.86147,0.65356 3.97362,0.94189 0.11215,0.28834 1.28204,0.52426 2.59976,0.52426 1.31772,0 2.39586,0.24292 2.39586,0.53984 0,0.29691 2.06452,0.7333 4.58781,0.96975 2.5233,0.23645 4.58782,0.6817 4.58782,0.98943 0,0.30774 0.80956,0.55952 1.79902,0.55952 0.98946,0 1.95241,0.24818 2.13988,0.55152 0.18747,0.30333 1.99297,0.74326 4.01221,0.97762 2.01924,0.23436 3.67135,0.63879 3.67135,0.89874 0,0.25995 1.65161,0.6595 3.67025,0.88788 2.01864,0.22838 3.67025,0.67684 3.67025,0.99657 0,0.31974 0.68817,0.58134 1.52927,0.58134 0.8411,0 1.52927,0.23902 1.52927,0.53116 0,0.29214 1.16397,0.68729 2.58661,0.8781 1.42263,0.19082 2.68428,0.63997 2.80366,0.99811 0.11938,0.35814 0.8823,0.65117 1.69535,0.65117 0.81307,0 1.4783,0.27527 1.4783,0.61171 0,0.33644 0.61936,0.6134 1.37635,0.61547 0.75698,0.002 2.14496,0.40469 3.08438,0.8947 0.93942,0.49 2.65985,1.06948 3.82317,1.28772 1.16333,0.21824 2.11515,0.64144 2.11515,0.94044 0,0.29899 0.4129,0.54363 0.91756,0.54363 0.50466,0 0.91756,0.25339 0.91756,0.5631 0,0.30971 0.82581,0.74448 1.83513,0.96617 1.00932,0.22168 1.83512,0.65646 1.83512,0.96616 0,0.30971 0.55054,0.56311 1.22342,0.56311 0.67288,0 1.22342,0.24543 1.22342,0.54539 0,0.29997 0.68817,0.71812 1.52927,0.92922 0.8411,0.2111 1.52927,0.65385 1.52927,0.98388 0,0.33003 0.4129,0.60005 0.91756,0.60005 0.50466,0 0.91756,0.27003 0.91756,0.60006 0,0.33003 0.66826,0.76777 1.48501,0.97276 0.81676,0.205 1.63392,0.76078 1.81593,1.23507 0.182,0.4743 0.87155,0.86236 1.53231,0.86236 0.66077,0 1.37166,0.53646 1.57976,1.19213 0.2081,0.65567 0.90075,1.35792 1.5392,1.56056 0.63846,0.20264 1.32663,0.89081 1.52927,1.52927 0.20265,0.63846 0.9049,1.3311 1.56057,1.5392 0.65567,0.20811 1.19212,0.63509 1.19212,0.94886 0,0.31377 0.38307,0.57048 0.85125,0.57048 0.46819,0 1.01936,0.66983 1.22484,1.48851 0.20548,0.81867 0.90941,1.65856 1.56429,1.86641 0.65489,0.20785 1.36098,0.91437 1.56908,1.57004 0.2081,0.65567 0.63508,1.19213 0.94885,1.19213 0.31376,0 0.57049,0.31252 0.57049,0.69449 0,0.38197 0.68817,1.33227 1.52927,2.11177 0.8411,0.77951 1.52927,1.81388 1.52927,2.29861 0,0.48473 0.4129,1.03977 0.91756,1.23342 0.50466,0.19366 0.91756,0.77365 0.91756,1.28887 0,0.51522 0.27527,0.93676 0.61171,0.93676 0.33644,0 0.61171,0.55917 0.61171,1.24261 0,0.68344 0.4129,1.40106 0.91756,1.59472 0.50466,0.19366 0.91757,0.87319 0.91757,1.51007 0,0.63689 0.2534,1.15797 0.5631,1.15797 0.30971,0 0.74448,0.82581 0.96617,1.83513 0.22168,1.00932 0.65646,1.83513 0.96617,1.83513 0.3097,0 0.5631,0.68817 0.5631,1.52927 0,0.8411 0.24944,1.52927 0.5543,1.52927 0.30487,0 0.74361,1.37634 0.97497,3.05854 0.23136,1.6822 0.6701,3.05854 0.97497,3.05854 0.30487,0 0.5543,0.66524 0.5543,1.4783 0,0.81306 0.26575,1.57005 0.59054,1.6822 0.3248,0.11214 0.77937,1.85551 1.01017,3.87415 0.2308,2.01864 0.65225,3.82352 0.93655,4.01086 0.2843,0.18733 0.69592,2.45829 0.91471,5.04659 0.21879,2.58829 0.63268,4.70599 0.91975,4.70599 0.28707,0 0.52195,1.62867 0.52195,3.61928 0,1.9906 0.26104,3.71103 0.58009,3.82318 0.31905,0.11214 0.77339,4.81465 1.00964,10.45001 0.23626,5.63537 0.66339,10.24612 0.94918,10.24612 0.2858,0 0.51963,6.05592 0.51963,13.45759 0,8.56392 0.22244,13.45758 0.61171,13.45758 0.38382,0 0.61171,3.87416 0.61171,10.39905 0,6.52489 -0.22789,10.39904 -0.61171,10.39904 -0.33644,0 -0.61171,0.42605 -0.61171,0.94677 0,0.52073 -0.68817,1.58455 -1.52927,2.36406 -0.8411,0.7795 -1.52927,1.60378 -1.52927,1.83173 0,0.90795 -6.04512,7.09161 -6.93272,7.09161 -0.31305,0 -1.44495,0.92859 -2.51535,2.06354 -1.07039,1.13495 -2.54805,2.25457 -3.28369,2.48806 -0.73565,0.23348 -1.33754,0.68123 -1.33754,0.995 0,0.31377 -0.4129,0.57049 -0.91756,0.57049 -0.50466,0 -0.91756,0.27002 -0.91756,0.60005 0,0.33003 -0.68817,0.77277 -1.52927,0.98388 -0.8411,0.2111 -1.52927,0.59941 -1.52927,0.8629 0,0.26349 -0.68818,0.6518 -1.52927,0.8629 -0.8411,0.21111 -1.52928,0.65385 -1.52928,0.98388 0,0.33003 -0.4129,0.60006 -0.91756,0.60006 -0.50466,0 -0.91756,0.26279 -0.91756,0.58399 0,0.32119 -0.96344,0.76473 -2.14098,0.98564 -1.17754,0.2209 -2.14098,0.64628 -2.14098,0.94528 0,0.29899 -0.4129,0.54363 -0.91756,0.54363 -0.50466,0 -0.91757,0.27201 -0.91757,0.60448 0,0.33246 -1.10107,0.78055 -2.44683,0.99574 -1.34576,0.21519 -2.44683,0.63135 -2.44683,0.92479 0,0.29344 -0.41291,0.53353 -0.91757,0.53353 -0.50466,0 -0.91756,0.2584 -0.91756,0.57423 0,0.31582 -1.23871,0.75998 -2.75269,0.98702 -1.51398,0.22703 -2.75269,0.62162 -2.75269,0.87686 0,0.25524 -1.10107,0.64014 -2.44683,0.85533 -1.34576,0.2152 -2.44683,0.66329 -2.44683,0.99575 0,0.33246 -0.82581,0.60448 -1.83513,0.60448 -1.00932,0 -1.83512,0.24943 -1.83512,0.5543 0,0.30487 -1.37635,0.74361 -3.05855,0.97497 -1.6822,0.23136 -3.05854,0.6701 -3.05854,0.97496 0,0.30487 -0.68817,0.55431 -1.52927,0.55431 -0.8411,0 -1.52927,0.25179 -1.52927,0.55952 0,0.30773 -2.06452,0.75297 -4.58782,0.98943 -2.52329,0.23645 -4.58781,0.67284 -4.58781,0.96975 0,0.29691 -0.80287,0.53984 -1.78415,0.53984 -0.98128,0 -1.8759,0.26421 -1.98805,0.58712 -0.11215,0.32292 -2.47487,0.7754 -5.2505,1.00551 -2.77563,0.23012 -5.04659,0.62938 -5.04659,0.88724 0,0.25787 -2.34388,0.66409 -5.20861,0.90272 -2.86473,0.23864 -5.3584,0.67625 -5.54147,0.97248 -0.18309,0.29623 -2.08294,0.5386 -4.22191,0.5386 -2.13896,0 -3.98078,0.25618 -4.09293,0.5693 -0.11215,0.31311 -4.53939,0.76567 -9.83831,1.00569 -5.29892,0.24002 -9.63441,0.67201 -9.63441,0.95997 0,0.28797 -3.71613,0.52358 -8.25806,0.52358 -5.09757,0 -8.25807,0.23412 -8.25807,0.61171 0,0.39707 -8.15611,0.61171 -23.24492,0.61171 -15.08881,0 -23.24492,-0.21464 -23.24492,-0.61171 z"
     id="path6582" />
</svg>
