<?xml version="1.0" encoding="UTF-8" standalone="no"?>
<svg
   width="820"
   height="604"
   viewBox="0 0 820 604"
   version="1.1"
   id="svg6613"
   xmlns="http://www.w3.org/2000/svg"
   xmlns:svg="http://www.w3.org/2000/svg">
  <defs
     id="defs6617" />
  <path
     style="fill:#ffffff;fill-rule:evenodd;stroke-width:0.721625"
     d="m 515.7513,601.8367 c -1.47181,-1.38826 -2.67603,-2.84955 -2.67603,-3.24731 0,-0.39777 -0.32994,-0.72321 -0.73322,-0.72321 -0.40327,0 -1.62101,-1.00697 -2.70609,-2.23773 -2.34266,-2.65715 -3.10005,-3.42317 -8.39234,-8.48793 -2.22425,-2.12862 -4.04502,-4.07701 -4.04617,-4.32975 -10e-4,-0.25274 -0.95525,-1.09813 -2.12025,-1.87866 -1.165,-0.78052 -2.44202,-2.12988 -2.83783,-2.99858 -0.3958,-0.86869 -1.7148,-2.16729 -2.93111,-2.88579 -1.21632,-0.71849 -2.22042,-1.64225 -2.23135,-2.0528 -0.0109,-0.41054 -1.13854,-1.55827 -2.50582,-2.5505 -1.36727,-0.99223 -2.50383,-2.12879 -2.52568,-2.52569 -0.0219,-0.39689 -1.16054,-1.53345 -2.53042,-2.52568 -1.36987,-0.99224 -2.65797,-2.29116 -2.86243,-2.8865 -0.20447,-0.59534 -1.34973,-1.7319 -2.54503,-2.52569 -1.1953,-0.79379 -2.35563,-2.01153 -2.57851,-2.70609 -0.22289,-0.69457 -0.7236,-1.26285 -1.1127,-1.26285 -0.84366,0 -4.24666,-3.55402 -4.24666,-4.43512 0,-0.33894 -0.4871,-0.61625 -1.08244,-0.61625 -0.59534,0 -1.08525,-0.24355 -1.08869,-0.54122 -0.007,-0.61586 -3.07374,-3.84754 -8.94659,-9.42814 -2.22002,-2.10955 -4.04534,-4.05794 -4.05627,-4.32975 -0.0109,-0.27181 -1.13854,-1.30603 -2.50582,-2.29826 -1.36728,-0.99224 -2.4949,-2.22017 -2.50582,-2.72874 -0.0109,-0.50858 -0.56334,-1.13323 -1.22759,-1.38813 -0.66424,-0.25489 -1.82008,-1.07581 -2.56853,-1.82426 -1.33333,-1.33333 -1.32009,-1.39273 0.65589,-2.94163 3.00251,-2.35353 7.25542,-6.32265 17.9315,-16.73492 5.29034,-5.15962 15.37198,-14.90156 22.40366,-21.64875 7.03168,-6.74719 18.16064,-17.5445 24.73102,-23.99403 6.57038,-6.44952 12.10153,-11.7264 12.29143,-11.7264 0.18991,0 1.50562,-1.11664 2.9238,-2.48144 1.41817,-1.36478 7.05376,-6.80403 12.52351,-12.08721 10.43525,-10.07929 25.09492,-24.10053 26.8675,-25.6974 0.57235,-0.51563 1.45379,-1.51485 1.95875,-2.22049 0.50496,-0.70563 1.45741,-1.58268 2.11657,-1.94899 1.14585,-0.63679 12.97632,-11.76468 30.62831,-28.80939 4.52138,-4.36583 10.49756,-10.03918 13.28041,-12.60745 2.78286,-2.56825 4.94835,-5.00374 4.81221,-5.41218 -0.16871,-0.50615 -88.92619,-0.91089 -278.7346,-1.27108 C 183.40999,358.55005 45.182736,358.13682 29.406213,357.9224 L 0.72162468,357.53255 v -53.38396 -53.38396 l 17.49940332,-0.0366 c 9.624671,-0.0201 22.695101,-0.23928 29.0454,-0.48701 6.350299,-0.24774 136.811052,-0.55724 289.912792,-0.6878 209.70862,-0.17883 278.36678,-0.44275 278.36678,-1.07005 0,-0.80775 -9.63808,-10.7078 -10.42446,-10.7078 -0.2153,0 -5.50787,-5.00867 -11.76127,-11.13038 -27.97201,-27.38293 -36.37507,-35.42778 -37.20026,-35.6144 -0.48633,-0.10999 -1.53042,-1.16442 -2.32021,-2.34321 -0.78979,-1.17877 -1.63248,-2.14415 -1.87266,-2.14529 -0.24018,-0.001 -5.1896,-4.71068 -10.99871,-10.46564 -5.80912,-5.75496 -10.86761,-10.46356 -11.24109,-10.46356 -0.37349,0 -0.88519,-0.64946 -1.13713,-1.44325 -0.25194,-0.79379 -0.7851,-1.44325 -1.18479,-1.44325 -0.39971,0 -4.24274,-3.49086 -8.54009,-7.75747 -4.29734,-4.2666 -9.22532,-9.01334 -10.95104,-10.54831 -1.72574,-1.53496 -7.35921,-6.82205 -12.51882,-11.7491 -5.15962,-4.92705 -9.86822,-9.38547 -10.46357,-9.90761 -0.59534,-0.52213 -1.56953,-1.47923 -2.16487,-2.12687 -1.11371,-1.21156 -9.15285,-8.93972 -24.68324,-23.728418 -11.70882,-11.14963 -12.85309,-12.20644 -15.18545,-14.02476 l -1.98338,-1.54625 38.69853,-38.684332 c 21.2842,-21.276383 38.90038,-38.6753053 39.14707,-38.6642723 0.24669,0.01103 67.98481,67.5545843 150.52915,150.0967623 l 150.0806,150.07672 -150.0806,150.09262 c -82.54434,82.55094 -150.25652,150.09557 -150.4715,150.09916 -0.21499,0.004 -1.59509,-1.1293 -3.06691,-2.51756 z"
     id="path7215" />
</svg>
