<?xml version="1.0" encoding="UTF-8" standalone="no"?>
<!-- Created with Inkscape (http://www.inkscape.org/) -->

<svg
   version="1.1"
   id="svg4420"
   width="804.34399"
   height="678.47644"
   viewBox="0 0 804.344 678.4764"
   sodipodi:docname="logo.svg"
   inkscape:export-filename="logo.svg"
   inkscape:export-xdpi="93.599998"
   inkscape:export-ydpi="93.599998"
   xmlns:inkscape="http://www.inkscape.org/namespaces/inkscape"
   xmlns:sodipodi="http://sodipodi.sourceforge.net/DTD/sodipodi-0.dtd"
   xmlns="http://www.w3.org/2000/svg"
   xmlns:svg="http://www.w3.org/2000/svg">
  <sodipodi:namedview
     id="namedview744"
     pagecolor="#505050"
     bordercolor="#eeeeee"
     borderopacity="1"
     inkscape:showpageshadow="0"
     inkscape:pageopacity="0"
     inkscape:pagecheckerboard="0"
     inkscape:deskcolor="#505050"
     showgrid="false"
     inkscape:zoom="0.74564396"
     inkscape:cx="327.90449"
     inkscape:cy="470.73405"
     inkscape:window-width="1920"
     inkscape:window-height="1017"
     inkscape:window-x="-8"
     inkscape:window-y="-8"
     inkscape:window-maximized="1"
     inkscape:current-layer="svg4420" />
  <defs
     id="defs4424" />
  <g
     id="g4426"
     transform="matrix(1.0471406,0,0,1,-4.8717652,8.0518373)">
    <path
       style="fill:#ffffff;fill-opacity:1;fill-rule:evenodd;stroke:none;stroke-width:0.287236;stroke-opacity:1"
       d="m 461.03638,143.78638 c 0.0138,-0.33461 0.0818,-0.40267 0.17354,-0.17354 0.083,0.20735 0.0728,0.45509 -0.0227,0.55054 -0.0954,0.0954 -0.16333,-0.0742 -0.15086,-0.377 z"
       id="path5709" />
    <path
       style="fill:#ffffff;fill-rule:evenodd;stroke-width:0.813774"
       d="m 8.8554587,551.99589 c -4.5438039,-0.37748 -5.1209279,-1.1375 -3.078287,-4.05377 1.269417,-1.81235 17.1155743,-29.27031 24.9358333,-43.2084 2.573018,-4.58591 5.386923,-9.34649 6.253122,-10.57907 0.866198,-1.23258 5.417975,-9.01573 10.115059,-17.29588 8.021485,-14.1405 24.512059,-42.81378 34.633329,-60.2193 2.472511,-4.25198 6.66795,-11.57595 9.323206,-16.27549 2.655248,-4.69955 6.577923,-11.47422 8.717053,-15.05483 4.267046,-7.14248 20.451816,-35.15722 27.738046,-48.01269 4.85616,-8.56798 6.76168,-11.8622 16.00454,-27.66833 6.87689,-11.76011 17.20984,-29.70846 46.84939,-81.37744 12.32394,-21.48364 23.71134,-41.08047 25.30532,-43.54851 1.59398,-2.46803 4.93943,-8.3272 7.43431,-13.02039 2.49489,-4.69317 6.99733,-12.56123 10.00544,-17.48457 3.0081,-4.92333 8.16281,-13.71209 11.45489,-19.53058 10.03248,-17.73154 19.06857,-33.37325 34.08308,-58.998646 0.91785,-1.566516 4.1303,-7.242592 7.13876,-12.613503 3.00847,-5.370911 6.522,-11.210679 7.80787,-12.977263 1.28587,-1.766583 2.33794,-3.523823 2.33794,-3.904979 0,-0.381154 1.831,-3.735291 4.06888,-7.453637 2.23787,-3.718345 4.06887,-7.004185 4.06887,-7.301866 0,-0.297681 0.8557,-1.906631 1.90154,-3.575445 4.38067,-6.990027 10.49051,-17.469754 15.38036,-26.3807542 l 5.21986,-9.5123838 2.50155,4.2228503 c 13.3209,22.4868547 14.70758,24.8645847 32.12457,55.0837487 7.35195,12.755914 15.50696,26.854555 18.12224,31.330314 2.61528,4.475764 6.48101,11.250434 8.59051,15.054824 2.10949,3.8044 6.40713,11.31147 9.55031,16.68238 7.89029,13.48255 25.3129,43.64319 31.73075,54.92977 2.92679,5.14712 6.8653,11.9218 8.75225,15.05483 1.88694,3.13303 7.58909,13.02039 12.67144,21.97191 5.08234,8.95151 9.47773,16.45858 9.76754,16.68237 0.28979,0.22379 1.35434,2.05478 2.36566,4.06887 1.01131,2.01409 4.85335,8.78877 8.53786,15.05483 3.68451,6.26606 9.16626,15.78722 12.18167,21.15813 3.0154,5.37091 6.31393,11.04699 7.33006,12.61351 1.01613,1.56651 4.97107,8.34118 8.78876,15.05482 3.81768,6.71364 10.86435,18.98129 15.65925,27.26144 14.74495,25.46253 22.37707,39.01821 22.37707,39.74467 0,0.38221 2.03758,3.7391 4.52797,7.45977 2.49038,3.72066 5.46799,8.62884 6.61691,10.90707 1.14893,2.27823 2.33933,4.32533 2.64535,4.54912 0.30602,0.22379 2.2744,3.51958 4.37416,7.32397 2.09976,3.8044 4.67958,8.38188 5.73293,10.17218 4.38879,7.45932 14.86641,25.60118 17.62448,30.51654 1.63241,2.90924 3.76886,6.61537 4.74767,8.23582 l 1.77965,2.9463 -2.56127,0.51224 c -1.40869,0.28175 -17.63974,0.51226 -36.06901,0.51226 h -33.50776 l -1.82227,-3.45854 c -1.00224,-1.9022 -3.4666,-6.02193 -5.47634,-9.15497 -2.00975,-3.13303 -4.77201,-7.85189 -6.13836,-10.48634 -1.36635,-2.63447 -5.42654,-9.77534 -9.02265,-15.8686 -3.59611,-6.09328 -8.47216,-14.37446 -10.83567,-18.40265 -7.7247,-13.16538 -31.42114,-54.29383 -37.14572,-64.47155 -3.07766,-5.47177 -8.02693,-14.07743 -10.99837,-19.1237 -2.97144,-5.04626 -8.31695,-14.30181 -11.87889,-20.56787 -3.56195,-6.26606 -7.58657,-13.22383 -8.94359,-15.46171 -1.35704,-2.23788 -5.09601,-8.64636 -8.30883,-14.24105 -3.21283,-5.5947 -10.17109,-17.67925 -15.46281,-26.85456 -5.2917,-9.17531 -12.75225,-22.17535 -16.57898,-28.88899 -3.82674,-6.71364 -9.35638,-16.30107 -12.2881,-21.30541 -2.93172,-5.00433 -6.33915,-10.86351 -7.57207,-13.02039 -12.96638,-22.68357 -23.16208,-39.68477 -23.94693,-39.93119 -0.52888,-0.16606 -3.05421,3.2907 -5.61183,7.68166 -2.55763,4.39096 -6.1894,10.54696 -8.0706,13.67999 -1.8812,3.13304 -6.49675,11.10137 -10.25677,17.7074 -3.76003,6.60604 -8.89003,15.57791 -11.40002,19.93747 -2.50999,4.35958 -9.40676,16.34906 -15.32615,26.64331 -5.9194,10.29425 -11.73857,20.18161 -12.93149,21.97191 -1.19293,1.7903 -3.08493,4.99332 -4.20444,7.11782 -2.27212,4.3118 -5.39696,9.79541 -23.99955,42.11553 -20.36131,35.37571 -24.82796,43.30116 -24.82796,44.05374 0,0.38711 -0.31103,0.70385 -0.69118,0.70385 -0.38014,0 -4.44735,6.68312 -9.03823,14.85138 -4.59088,8.16826 -11.45835,20.16126 -15.26104,26.65112 -3.80269,6.48985 -11.41461,19.67299 -16.91537,29.29587 -16.1816,28.30764 -24.95381,43.48117 -25.64029,44.35071 -0.35336,0.44757 -3.01859,5.02505 -5.92273,10.17218 -6.49787,11.51639 -21.72329,37.91923 -23.4635,40.68872 -0.70309,1.11894 -5.82187,10.00785 -11.37508,19.75313 -5.553206,9.74529 -12.935095,22.56224 -16.404199,28.48211 -3.469104,5.91987 -6.924265,11.95355 -7.678136,13.40817 l -1.370673,2.64476 -22.838405,0.004 c -12.561124,0.002 -26.866589,0.14225 -31.789924,0.31203 -4.923335,0.16978 -10.87406,0.14898 -13.2238343,-0.0462 z M 412.12812,231.85165 c -0.16037,-0.48115 -0.63948,-0.87481 -1.06468,-0.87481 -0.4252,0 -0.90431,0.39366 -1.06469,0.87481 -0.16038,0.48114 0.31873,0.8748 1.06469,0.8748 0.74596,0 1.22507,-0.39366 1.06468,-0.8748 z"
       id="path390" />
    <path
       style="fill:#ffffff;fill-rule:evenodd;stroke-width:0.813774"
       d="m 84.129594,669.92813 c -7.4969,-0.1343 -13.630725,-0.47096 -13.630725,-0.74813 0,-0.45831 8.521475,-15.36424 15.739535,-27.53191 1.59306,-2.68546 5.52536,-9.46013 8.73846,-15.05483 3.21309,-5.5947 11.836936,-20.49245 19.164106,-33.10611 7.32716,-12.61366 13.32211,-23.29445 13.32211,-23.73509 0,-0.44063 0.3102,-0.92322 0.68933,-1.07241 0.37914,-0.14919 4.02009,-6.31353 8.09101,-13.69854 4.07092,-7.385 8.06355,-14.33784 8.87251,-15.45075 0.80896,-1.11292 4.07869,-6.60589 7.26606,-12.20661 3.18736,-5.60073 7.50132,-13.11273 9.58657,-16.69334 2.08526,-3.58061 4.0192,-7.42569 4.29766,-8.54463 0.27847,-1.11894 1.74897,-3.68233 3.26777,-5.69642 4.80409,-6.37072 6.57595,-9.18659 9.98517,-15.8686 1.82686,-3.58061 4.76222,-8.52429 6.52303,-10.98596 1.76082,-2.46167 4.55726,-7.19514 6.21433,-10.51884 1.65705,-3.32369 4.17535,-7.35187 5.59621,-8.95152 2.95813,-3.33036 4.99075,-6.88477 5.61877,-9.82552 0.36841,-1.72511 18.08741,-33.81698 19.99439,-36.21296 0.73537,-0.92393 16.73221,-28.64659 26.06133,-45.16448 3.4126,-6.04227 7.13274,-12.45074 8.26697,-14.24105 1.13422,-1.7903 4.93172,-8.38187 8.43888,-14.64794 3.50715,-6.26606 9.72613,-17.06891 13.81994,-24.00634 8.31912,-14.09771 24.04766,-41.27475 29.80139,-51.49326 11.75294,-20.87299 18.4832,-31.91862 19.4485,-31.91862 0.60032,0 3.70045,4.57749 6.88915,10.17218 3.18871,5.5947 10.99413,19.19939 17.3454,30.23264 6.35126,11.03325 11.54775,20.37136 11.54775,20.75135 0,0.6047 -5.77893,11.1919 -10.88113,19.93463 -0.9528,1.63265 -3.34172,5.84393 -5.30869,9.35841 -1.96697,3.51447 -4.56101,7.85474 -5.76454,9.64504 -1.20352,1.79031 -4.14638,6.91709 -6.53969,11.39285 -2.39331,4.47576 -5.47534,9.83707 -6.84896,11.91404 -1.37363,2.07696 -4.61993,7.56994 -7.21402,12.20661 -7.19218,12.85533 -29.33884,51.24458 -36.31754,62.95321 -0.80031,1.34272 -3.7965,6.60221 -6.65819,11.68775 -2.86169,5.08554 -6.11858,10.76602 -7.23752,12.62329 -1.11894,1.85727 -2.69302,4.47104 -3.49795,5.80839 -0.80493,1.33735 -4.80073,8.29072 -8.87955,15.45193 -14.92297,26.2004 -20.1393,35.2977 -28.69667,50.04713 -28.76328,49.57622 -50.88234,88.14967 -50.88234,88.73375 0,0.96537 105.06628,1.5952 266.10485,1.5952 88.47273,0 177.30702,0.24524 197.40951,0.54498 l 36.55,0.54498 3.87039,6.57555 c 2.12871,3.61655 7.18645,12.43472 11.23943,19.59594 4.05298,7.16121 7.71273,13.14245 8.13279,13.29164 0.42006,0.1492 0.76374,0.65633 0.76374,1.12696 0,0.47063 2.35987,4.92604 5.24416,9.90091 2.88429,4.97488 5.48685,9.68608 5.78348,10.46934 0.51314,1.35494 -14.47453,1.41524 -308.57856,1.24172 C 236.86336,670.25438 91.626484,670.06243 84.129594,669.92813 Z M 492.84778,620.48995 c 0,-0.67136 -0.52769,-1.22066 -1.17264,-1.22066 -1.35953,0 -2.27727,1.16148 -1.51782,1.92093 0.97259,0.97259 2.69046,0.52546 2.69046,-0.70027 z"
       id="path392" />
    <path
       style="fill:#ffffff;fill-rule:evenodd;stroke-width:0.813774"
       d="m 277.80705,558.25627 -21.7693,-0.42694 4.32833,-7.73086 c 2.38058,-4.25197 7.62122,-13.40693 11.64588,-20.34436 4.02466,-6.93743 10.0421,-17.46701 13.37211,-23.39906 l 6.05454,-10.78558 81.45617,0.20651 c 64.49626,0.1635 81.7159,0.42211 82.7036,1.24207 1.02125,0.84781 1.68571,0.78405 3.66448,-0.35161 2.24838,-1.2904 2.73836,-1.29578 7.02204,-0.0771 3.65912,1.04092 5.14681,1.12125 7.24275,0.39103 1.86999,-0.65149 29.67944,-1.04887 95.54413,-1.36528 51.0985,-0.24548 93.15736,-0.69751 93.46412,-1.00453 0.80953,-0.81025 -2.47995,-7.19497 -12.70965,-24.66883 -4.97845,-8.50394 -11.88116,-20.40539 -15.33936,-26.44766 C 614.049,407.78432 589.66457,365.5104 579.09758,347.46869 566.8848,326.617 561.45172,317.21411 555.11707,305.96619 c -7.91681,-14.0572 -21.07868,-36.90403 -26.48772,-45.97825 -14.19183,-23.8083 -32.52648,-56.7048 -32.52648,-58.35985 0,-1.08537 -1.26769,-3.4544 -2.81709,-5.26452 -3.97643,-4.64556 -10.47986,-15.50818 -11.64745,-19.45462 -0.54172,-1.83101 -2.76255,-5.67727 -4.93518,-8.54725 -4.85859,-6.41805 -6.64106,-9.78297 -6.64106,-12.53688 0,-3.08321 -2.13482,-6.71679 -4.73684,-8.06235 -1.62935,-0.84256 -4.66165,-5.33961 -10.76873,-15.97051 -4.67543,-8.13873 -9.51235,-16.49748 -10.74873,-18.57499 -1.23637,-2.07751 -4.10299,-7.07308 -6.37026,-11.10126 -2.26727,-4.02819 -7.76532,-13.54935 -12.2179,-21.158142 -4.45257,-7.608791 -8.67365,-14.962566 -9.38018,-16.341722 l -1.2846,-2.507557 13.71601,-23.758677 c 7.54381,-13.067273 14.63151,-25.335659 15.75045,-27.263081 1.11894,-1.9274212 2.87805,-5.0541652 3.90913,-6.9483182 1.03108,-1.894154 2.31278,-3.30594403 2.84821,-3.137313 1.29396,0.407525 4.51223,5.44354 12.36636,19.3511362 3.58061,6.340314 7.75109,13.598459 9.26773,16.129215 1.51664,2.530754 5.57358,9.545051 9.01541,15.587326 3.44183,6.042275 11.01729,19.22542 16.83435,29.295878 5.81706,10.070455 14.3447,24.901505 18.95031,32.957865 4.60561,8.05637 9.18667,15.92964 10.18014,17.49615 0.99347,1.56652 3.58715,5.9609 5.76375,9.7653 2.17659,3.80439 6.48412,11.31146 9.57229,16.68237 3.08816,5.37091 6.45006,11.23009 7.47089,13.02039 1.02083,1.79031 4.51622,7.83258 7.76755,13.42728 3.25132,5.5947 12.22332,21.15813 19.93776,34.58541 7.71444,13.42728 17.22708,29.90621 21.13917,36.61985 3.91211,6.71364 11.32444,19.53058 16.47185,28.4821 8.91892,15.51027 16.50245,28.63352 25.86407,44.75759 2.33876,4.02819 12.58195,21.78881 22.76265,39.46806 10.18069,17.67925 20.05609,34.70748 21.94531,37.84051 1.88923,3.13303 5.00873,8.62601 6.93221,12.20662 1.92348,3.5806 4.66659,8.34118 6.0958,10.57906 1.4292,2.23788 5.08855,8.46326 8.13189,13.83417 3.04332,5.37091 6.82217,11.96248 8.39741,14.64794 1.57525,2.68545 3.55934,6.16434 4.40909,7.73085 0.84974,1.56652 2.7504,4.86231 4.22367,7.32397 2.96135,4.94807 27.22503,47.09503 30.45145,52.89534 2.15803,3.8796 10.68771,18.46472 15.30094,26.16344 1.51551,2.52913 2.75546,4.94144 2.75546,5.3607 0,0.45205 -13.16465,0.98125 -32.34753,1.30033 -36.81347,0.61234 -429.45388,0.39723 -462.63158,-0.25344 z"
       id="path394" />
  </g>
</svg>
