<?xml version="1.0" encoding="UTF-8" standalone="no"?>
<svg
   width="2133"
   height="2133"
   viewBox="0 0 2133 2133"
   version="1.1"
   id="svg7243"
   xmlns="http://www.w3.org/2000/svg"
   xmlns:svg="http://www.w3.org/2000/svg">
  <defs
     id="defs7247" />
  <path
     style="fill:#ffffff;fill-rule:evenodd;stroke-width:2.54839"
     d="m 1057.287,1024.0075 c -9.8113,-0.541 -18.9282,-2.0719 -20.2597,-3.4022 -1.3316,-1.3302 -6.711,-2.4186 -11.9545,-2.4186 -5.2434,0 -10.1604,-1.0144 -10.9267,-2.2543 -0.7663,-1.2399 -6.6909,-3.0487 -13.1659,-4.0197 -6.47486,-0.971 -15.37646,-3.781 -19.78126,-6.2445 -4.4048,-2.4634 -11.4376,-5.3325 -15.6284,-6.37581 -4.1908,-1.0433 -8.2045,-2.6671 -8.9193,-3.6085 -0.7149,-0.9413 -6.8258,-4.5774 -13.5798,-8.0802 -27.5162,-14.27026 -32.5631,-17.34046 -37.0962,-22.56726 -2.6057,-3.0044 -5.8368,-5.4626 -7.1801,-5.4626 -1.3433,0 -5.1357,-2.8669 -8.4275,-6.371 -3.2919,-3.504 -7.2415,-6.3709 -8.7768,-6.3709 -3.1527,0 -49.8361,-46.13795 -49.8361,-49.25381 0,-1.67801 -13.5717,-20.4161 -17.8532,-24.64945 -3.5978,-3.55725 -14.57846,-20.24691 -18.86256,-28.66936 -2.6736,-5.25605 -5.7361,-9.55645 -6.8056,-9.55645 -1.0696,0 -2.7003,-3.44032 -3.6238,-7.64516 -0.9235,-4.20484 -2.4643,-7.64516 -3.4239,-7.64516 -1.8982,0 -10.5922,-18.83951 -10.5922,-22.95297 0,-1.392 -1.1468,-2.5309 -2.5484,-2.5309 -1.4016,0 -2.5484,-2.64775 -2.5484,-5.8839 0,-3.23614 -1.6837,-8.10993 -3.7415,-10.83064 -2.0579,-2.72071 -3.778,-7.52699 -3.8226,-10.68062 -0.045,-3.15363 -1.1759,-5.73387 -2.514,-5.73387 -1.3381,0 -3.1209,-4.30041 -3.9618,-9.55646 -0.8409,-5.25604 -2.613,-11.54773 -3.938,-13.98154 -1.3251,-2.43382 -2.4092,-6.73422 -2.4092,-9.55646 0,-2.82223 -1.1339,-5.13135 -2.5198,-5.13135 -1.3859,0 -2.5172,-2.58024 -2.514,-5.73387 0.01,-9.90709 -3.0788,-24.8349 -5.4413,-26.295 -1.2468,-0.77053 -2.2668,-6.9716 -2.2668,-13.78012 0,-7.63716 -1.2203,-12.78661 -3.1855,-13.44282 -4.5692,-1.52567 -4.484,-203.6487 0.087,-205.1722 1.9188,-0.63962 3.0989,-6.23228 3.0989,-14.68636 0,-7.50933 0.9788,-14.25825 2.175,-14.99756 1.1962,-0.73931 2.9487,-9.66947 3.8944,-19.84482 0.9457,-10.17533 2.8339,-19.61505 4.196,-20.97715 1.3621,-1.3621 2.4766,-5.61984 2.4766,-9.46164 0,-3.8418 1.0127,-7.611 2.2505,-8.376 1.2378,-0.765 3.0405,-7.71332 4.0059,-15.44072 0.9655,-7.72739 2.533,-14.05875 3.4834,-14.06969 1.9567,-0.0225 8.0989,-12.3884 8.0989,-16.30534 0,-4.98613 25.7895,-54.51627 30.6992,-58.95949 2.738,-2.47787 4.9782,-5.63478 4.9782,-7.01534 0,-3.31131 50.97916,-54.62541 55.99686,-56.36476 4.4792,-1.55267 13.484,-7.10962 15.3579,-9.4775 3.162,-3.99551 41.0906,-22.09175 49.6804,-23.7032 5.258,-0.98641 11.7123,-2.8618 14.343,-4.16753 2.6307,-1.30573 6.892,-3.41524 9.4696,-4.6878 2.5775,-1.27257 11.1935,-3.12676 19.1465,-4.12043 7.9531,-0.99367 15.086,-2.81941 15.851,-4.05721 0.765,-1.2378 6.4838,-2.25055 12.7083,-2.25055 6.2245,0 11.31726,-0.8613 11.31726,-1.914 0,-1.05271 6.594,-2.25276 14.6533,-2.66679 8.0592,-0.41402 15.0354,-1.84627 15.5026,-3.18277 1.3623,-3.89697 107.09,-3.16116 111.0238,0.77267 1.85,1.84992 8.7696,3.06169 16.3825,2.86892 7.2489,-0.18356 13.1799,0.6688 13.1799,1.89412 0,1.22532 5.7338,2.22785 12.7419,2.22785 7.0081,0 12.7419,1.0555 12.7419,2.34555 0,1.29006 7.4541,3.14381 16.5646,4.11946 9.1104,0.97565 16.5645,2.78709 16.5645,4.02542 0,1.23833 2.7992,2.25151 6.2205,2.25151 3.4213,0 6.8378,0.99865 7.5922,2.21923 0.7543,1.22058 5.1224,2.96601 9.7068,3.87875 9.9239,1.9758 50.3837,21.6131 50.3837,24.45391 0,1.09048 2.0069,2.65654 4.4597,3.48012 2.4528,0.82359 6.7532,2.9642 9.5564,4.75691 9.0785,5.80584 57.3387,53.85817 57.3387,57.09171 0,1.7251 2.867,5.39167 6.371,8.14794 3.504,2.75628 6.371,6.38959 6.371,8.07403 0,3.72582 8.1715,18.80695 10.8306,19.98879 1.0512,0.46721 1.9113,2.01406 1.9113,3.43745 0,3.22177 8.0538,20.74093 10.3303,22.47116 0.9221,0.7008 2.4672,5.57459 3.4337,10.83064 0.9665,5.25605 2.7696,9.55645 4.0068,9.55645 1.2373,0 3.0395,6.32242 4.005,14.04981 0.9655,7.7274 2.7681,14.67572 4.0059,15.44072 1.2378,0.765 2.2506,4.76356 2.2506,8.88568 0,4.12212 1.0679,7.49476 2.3732,7.49476 1.3053,0 3.1758,9.1994 4.1565,20.44309 0.9808,11.24371 2.7798,21.05895 3.9978,21.81169 1.2179,0.75272 2.2144,7.51262 2.2144,15.02195 0,8.54989 1.1734,14.0445 3.1391,14.69974 4.6061,1.53538 4.6518,203.62166 0.046,205.15905 -1.9653,0.65606 -3.1855,5.8053 -3.1855,13.44259 0,6.80852 -1.0339,13.01818 -2.2976,13.79918 -1.2637,0.78101 -3.0965,8.30272 -4.0728,16.71492 -0.9764,8.41218 -2.8094,15.29489 -4.0734,15.29489 -1.2639,0 -2.2981,2.30912 -2.2981,5.13135 0,2.82224 -1.0841,7.12264 -2.4092,9.55646 -1.325,2.43381 -3.0972,8.7255 -3.9381,13.98154 -0.8408,5.25605 -2.4771,9.55646 -3.636,9.55646 -1.159,0 -2.8408,4.58709 -3.7373,10.19354 -0.8965,5.60646 -2.7632,10.19355 -4.1483,10.19355 -1.385,0 -2.5182,2.86694 -2.5182,6.37097 0,3.50403 -1.1468,6.37097 -2.5484,6.37097 -1.4016,0 -2.5484,1.1389 -2.5484,2.5309 0,4.11346 -8.694,22.95297 -10.5922,22.95297 -0.9596,0 -2.5004,3.44032 -3.4239,7.64516 -0.9236,4.20484 -2.6325,7.64516 -3.7978,7.64516 -1.1652,0 -4.5708,4.87379 -7.5681,10.83065 -7.2965,14.50134 -10.5041,19.54974 -17.3035,27.234 -3.1536,3.56402 -5.7339,7.4735 -5.7339,8.6877 0,1.21423 -2.8669,4.46279 -6.3709,7.21907 -3.5041,2.75629 -6.371,6.3843 -6.371,8.06226 0,3.30549 -45.9681,50.09539 -49.2155,50.09539 -1.0861,0 -5.0665,2.8669 -8.8455,6.3709 -3.7789,3.5041 -8.0628,6.371 -9.5197,6.371 -1.4569,0 -4.3356,2.3793 -6.397,5.2873 -2.0615,2.9081 -8.6219,7.5238 -14.5787,10.2573 -5.9569,2.7334 -10.8307,5.83556 -10.8307,6.89356 0,1.058 -5.7339,4.1488 -12.7419,6.8683 -7.0081,2.7195 -12.742,5.7478 -12.742,6.7295 0,0.9817 -3.6494,2.5864 -8.1098,3.5661 -4.4605,0.97971 -12.0123,3.97311 -16.7819,6.65201 -4.7696,2.6789 -13.766,5.569 -19.992,6.4223 -6.226,0.8534 -11.9297,2.5382 -12.675,3.7441 -0.7452,1.2058 -5.7788,2.1924 -11.1857,2.1924 -5.407,0 -10.2131,0.9908 -10.6803,2.2018 -0.9992,2.5898 -56.6958,5.036 -82.3979,3.619 z"
     id="path7811" />
  <path
     style="fill:#ffffff;fill-rule:evenodd;stroke-width:2.54839"
     d="m 567.52195,1078.4054 c -30.0467,-9.5576 -39.3424,-11.5212 -48.6386,-10.2744 -8.9441,1.1997 -9.9743,0.7673 -9.9743,-4.1863 0,-5.1428 -4.6774,-9.0457 -15.9274,-13.2899 -2.4528,-0.9254 -4.4597,-2.6955 -4.4597,-3.9336 0,-1.2382 -1.5203,-2.2512 -3.3784,-2.2512 -1.8581,0 -6.0717,-2.8669 -9.3635,-6.371 -3.2919,-3.504 -7.0202,-6.3709 -8.2851,-6.3709 -2.5224,0 -38.7628,-35.39336 -40.4453,-39.49998 -2.693,-6.57328 -13.1611,-21.66129 -15.0285,-21.66129 -1.1518,0 -2.8325,-3.36109 -3.7347,-7.46907 -0.9023,-4.108 -3.2296,-8.78788 -5.1718,-10.39976 -1.9422,-1.61188 -6.0898,-8.28509 -9.2169,-14.82932 -3.1271,-6.54423 -6.6853,-12.57711 -7.9072,-13.40635 -1.2218,-0.82925 -1.9729,-2.54941 -1.669,-3.82258 0.782,-3.27572 -3.0005,-16.08048 -7.0323,-23.8063 -1.8773,-3.59745 -3.4204,-8.31831 -3.429,-10.49081 -0.01,-2.1725 -1.0568,-5.03944 -2.3292,-6.37097 -1.2724,-1.33153 -2.881,-8.15484 -3.5747,-15.1629 -0.6936,-7.00807 -2.6259,-22.48952 -4.2938,-34.40323 -3.5043,-25.03061 -1.4875,-129.51119 2.5785,-133.57719 1.3787,-1.37868 2.5067,-8.5169 2.5067,-15.86273 0,-7.34583 0.9958,-13.97146 2.2128,-14.72362 1.217,-0.75217 2.9887,-7.98718 3.937,-16.07782 0.9484,-8.09064 3.393,-16.93629 5.4324,-19.657 2.0395,-2.72071 3.7081,-7.59451 3.7081,-10.83065 0,-3.23614 1.1468,-5.88389 2.5484,-5.88389 1.4016,0 2.5484,-2.29355 2.5484,-5.09678 0,-2.80322 1.0557,-5.09677 2.3459,-5.09677 1.2903,0 3.1015,-3.44032 4.0251,-7.64516 0.9235,-4.20484 2.4875,-7.64516 3.4756,-7.64516 0.988,0 3.9223,-3.59873 6.5205,-7.99718 2.5982,-4.39845 6.3277,-9.84563 8.2877,-12.10484 1.9599,-2.25921 6.4906,-7.83468 10.068,-12.38992 3.5775,-4.55524 7.9159,-8.28226 9.6409,-8.28226 1.7251,0 5.6293,-2.86693 8.676,-6.37097 3.0467,-3.50403 7.2672,-6.37096 9.3789,-6.37096 2.1117,0 3.8395,-0.96619 3.8395,-2.14709 0,-1.18091 4.3004,-4.33453 9.5564,-7.00807 5.2561,-2.67353 10.1299,-5.54451 10.8307,-6.37994 0.7008,-0.83543 8.1548,-3.60384 16.5645,-6.15202 8.4097,-2.54818 16.4484,-5.50357 17.8639,-6.56753 1.4155,-1.06395 9.7553,-2.74697 18.5329,-3.74004 8.7775,-0.99307 16.5746,-2.80133 17.3267,-4.01835 0.7522,-1.21702 16.7814,-2.21277 35.6204,-2.21277 30.3119,0 34.8126,-0.55978 39.1182,-4.86535 2.6759,-2.67594 5.4099,-6.97634 6.0754,-9.55645 0.6655,-2.58011 1.343,-0.3907 1.5056,4.86535 l 0.2956,9.55645 h 16.4141 c 9.0278,0 17.04,1.01275 17.805,2.25055 0.765,1.2378 7.7134,3.04048 15.4407,4.00595 9.6557,1.20639 14.0499,2.89359 14.0499,5.39461 0,2.00157 -0.8996,3.63921 -1.999,3.63921 -1.0994,0 -4.0778,3.51927 -6.6187,7.82061 -4.2348,7.16911 -4.5208,13.44629 -3.4327,75.35216 0.7974,45.36831 2.1332,68.47784 4.0703,70.41488 1.5858,1.58583 2.8833,7.74677 2.8833,13.69099 0,5.94421 1.1468,11.51641 2.5484,12.38265 1.4016,0.86625 2.5484,7.022 2.5484,13.67946 0,6.69789 1.6711,14.31398 3.7415,17.05121 2.0578,2.72072 3.778,7.52699 3.8226,10.68062 0.045,3.15363 0.9984,5.73387 2.1197,5.73387 1.1213,0 2.2025,2.58025 2.4027,5.73388 0.517,8.14385 3.6742,20.79422 5.5652,22.29838 0.881,0.70081 3.6939,6.43468 6.2508,12.74194 2.5569,6.30726 5.686,13.1879 6.9534,15.29032 1.2675,2.10242 4.3043,7.83629 6.7485,12.74194 2.4442,4.90564 5.1636,9.49274 6.0431,10.19354 0.8796,0.70081 2.4129,6.14197 3.4073,12.09149 0.9944,5.94952 2.855,11.46438 4.1346,12.25524 1.2797,0.79087 2.3267,3.5234 2.3267,6.07228 0,2.54889 1.7202,6.06195 3.8226,7.8068 2.1024,1.74486 3.8226,5.89898 3.8226,9.23138 0,3.33242 1.0948,6.05894 2.4329,6.05894 1.3381,0 3.1672,3.91448 4.0648,8.69885 0.8976,4.78436 3.538,10.80493 5.8676,13.37903 2.3297,2.5741 5.5529,7.54712 7.1627,11.05116 5.3656,11.67872 28.2706,38.2258 32.9816,38.2258 6.439,0 6.4197,5.47503 -0.049,13.95622 -3.6242,4.75157 -6.5895,9.4184 -6.5895,10.37076 0,4.60968 -48.804,57.22135 -53.08,57.22135 -1.207,0 -4.244,2.2646 -6.7489,5.0325 -2.5049,2.7678 -9.5633,7.4572 -15.6853,10.4209 -6.122,2.9636 -11.1309,6.1721 -11.1309,7.1299 0,0.9579 -4.3004,4.0064 -9.5565,6.7746 -5.256,2.7682 -11.0718,6.4693 -12.924,8.2247 -1.8521,1.7554 -5.0213,3.1916 -7.0426,3.1916 -2.0213,0 -5.6664,0.9852 -8.1002,2.1892 -8.0032,3.9594 -30.4864,10.5527 -35.9849,10.5527 -2.9655,0 -5.3918,1.1468 -5.3918,2.5484 0,3.9188 -52.8286,2.5298 -66.2581,-1.742 z"
     id="path7813" />
  <path
     style="fill:#ffffff;fill-rule:evenodd;stroke-width:2.54839"
     d="m 338.27664,1681.0956 c -0.7441,-1.204 -7.4362,-2.904 -14.8712,-3.7779 -7.435,-0.8738 -19.2217,-4.3302 -26.1926,-7.6809 -6.9709,-3.3507 -16.6881,-6.8757 -21.5937,-7.8335 -10.1155,-1.9749 -38.1938,-11.5351 -42.0484,-14.3168 -1.4016,-1.0115 -6.2754,-2.636 -10.8307,-3.61 -4.5552,-0.974 -8.2822,-2.7311 -8.2822,-3.9046 0,-1.1735 -7.4541,-5.765 -16.5646,-10.2033 -9.1104,-4.4383 -16.5645,-9.1209 -16.5645,-10.4058 0,-1.2849 -1.5424,-2.3361 -3.4276,-2.3361 -1.8852,0 -5.6122,-2.4252 -8.2822,-5.3893 -2.6701,-2.9641 -7.5459,-6.4182 -10.8352,-7.6758 -3.2892,-1.2577 -6.5134,-4.3248 -7.1649,-6.816 -0.6514,-2.4911 -3.6249,-5.6309 -6.6077,-6.9773 -2.9828,-1.3465 -7.4155,-5.8884 -9.8504,-10.0933 -3.9154,-6.7614 -4.4487,-16.2442 -4.6135,-82.035 -0.1024,-40.9145 0.7961,-74.9971 1.9968,-75.7391 1.2006,-0.742 2.9971,-15.4311 3.9921,-32.6423 0.9951,-17.2113 2.8797,-32.3827 4.1881,-33.7142 1.3083,-1.3315 2.3787,-5.5643 2.3787,-9.4061 0,-3.8418 0.9775,-7.5892 2.1722,-8.3275 1.1948,-0.7384 2.898,-9.1146 3.7851,-18.6137 0.887,-9.4992 2.7764,-17.6591 4.1987,-18.1332 1.4223,-0.4741 2.586,-3.6333 2.586,-7.0206 0,-3.3872 1.1467,-6.1586 2.5483,-6.1586 1.4017,0 2.5484,-1.2601 2.5484,-2.8003 0,-1.5402 1.5974,-6.414 3.5498,-10.8307 1.9523,-4.4166 4.2585,-9.7504 5.1248,-11.8529 0.8663,-2.1024 3.8434,-7.2629 6.6158,-11.4677 2.7723,-4.2048 5.8519,-9.3653 6.8435,-11.4677 0.9916,-2.1025 6.7381,-8.4317 12.77,-14.065 6.0319,-5.6334 10.9671,-11.6539 10.9671,-13.3791 0,-1.7251 1.3243,-3.1366 2.943,-3.1366 1.6186,0 7.3065,-4.5871 12.6398,-10.1935 5.3333,-5.6065 11.463,-10.1936 13.6216,-10.1936 2.1585,0 3.9246,-1.1827 3.9246,-2.6283 0,-1.4456 2.0069,-3.3681 4.4597,-4.2721 2.4528,-0.9041 8.0083,-4.3084 12.3454,-7.5652 4.3371,-3.2568 9.6227,-5.9215 11.7457,-5.9215 2.123,0 10.6156,-3.4258 18.8724,-7.6129 8.2568,-4.187 16.9515,-7.6274 19.3216,-7.6451 2.3701,-0.018 5.018,-1.1791 5.8843,-2.5807 0.8662,-1.4016 4.3742,-2.5484 7.7955,-2.5484 3.4213,0 6.2206,-0.886 6.2206,-1.969 0,-2.0106 17.5933,-7.3818 32.4919,-9.9197 4.5553,-0.776 8.2823,-2.284 8.2823,-3.3511 0,-1.0672 8.001,-2.7287 17.7801,-3.6923 9.7791,-0.9636 18.4476,-2.832 19.2633,-4.1519 0.8158,-1.3199 5.9071,-2.3998 11.314,-2.3998 5.4069,0 10.213,-0.9697 10.6802,-2.1548 0.4672,-1.1851 6.3389,-2.8892 13.0481,-3.7867 9.5194,-1.2735 12.5177,-0.8002 13.6517,2.1548 0.7992,2.0827 2.9061,3.7867 4.682,3.7867 1.776,0 8.7027,5.6425 15.3928,12.5389 18.4073,18.9751 48.6474,28.2353 92.2056,28.2353 23.5905,0 26.4777,0.4658 23.6919,3.8225 -1.7449,2.1025 -4.7522,3.8226 -6.683,3.8226 -1.9308,0 -3.5106,1.0557 -3.5106,2.3459 0,1.2903 -3.4403,3.1015 -7.6451,4.0251 -4.2049,0.9235 -7.6452,2.7348 -7.6452,4.025 0,1.2903 -2.2056,2.3459 -4.9012,2.3459 -2.6957,0 -8.3085,2.867 -12.4728,6.371 -4.1643,3.504 -8.3876,6.371 -9.3852,6.371 -0.9976,0 -6.1576,3.4403 -11.4666,7.6451 -5.309,4.2049 -10.6346,7.6645 -11.8345,7.6881 -1.1999,0.024 -6.6836,4.6107 -12.186,10.1935 -5.5024,5.5829 -10.9943,10.1507 -12.2043,10.1507 -3.1958,0 -22.3881,19.4902 -22.3881,22.7356 0,1.5116 -1.7202,2.7483 -3.8226,2.7483 -2.1024,0 -3.8226,1.5056 -3.8226,3.3458 0,1.8402 -3.4915,6.6909 -7.7589,10.7793 -4.2674,4.0885 -10.2046,12.3304 -13.1937,18.3155 -2.9891,5.9851 -6.2444,10.882 -7.2341,10.882 -0.9897,0 -2.4733,2.0068 -3.2969,4.4596 -0.8236,2.4529 -2.5821,6.1799 -3.9077,8.2823 -3.7717,5.9816 -10.4796,22.1324 -10.4796,25.2319 0,1.5402 -0.8669,2.8003 -1.9263,2.8003 -2.2283,0 -7.2155,10.8429 -9.6812,21.0483 -0.9345,3.8677 -2.7188,7.6624 -3.9652,8.4327 -1.2463,0.7703 -2.2731,3.3397 -2.2818,5.7098 -0.01,2.3701 -1.7288,7.594 -3.8225,11.6086 -2.0938,4.0147 -3.8069,11.182 -3.8069,15.9274 0,4.7455 -1.0555,8.6281 -2.3456,8.6281 -1.29,0 -3.1438,7.454 -4.1194,16.5645 -0.9757,9.1105 -2.7871,16.5645 -4.0254,16.5645 -1.2384,0 -2.2515,4.3578 -2.2515,9.6839 0,5.3261 -1.144,10.8278 -2.5422,12.226 -1.3982,1.3982 -3.2969,16.5783 -4.2193,33.7335 -0.9224,17.1552 -2.6454,31.7898 -3.8288,32.5212 -1.1834,0.7313 -2.1517,10.942 -2.1517,22.6903 0,11.7482 -1.1468,22.0692 -2.5484,22.9354 -1.561,0.9648 -2.5484,21.2631 -2.5484,52.3924 v 50.8173 h -8.7689 c -4.8229,0 -9.3778,-0.9851 -10.1219,-2.1891 z"
     id="path7815" />
  <path
     style="fill:#ffffff;fill-rule:evenodd;stroke-width:2.54839"
     d="m 973.59131,1987.2266 c -1.841,-2.1133 -11.497,-2.9704 -30.5806,-2.7144 -15.3395,0.2056 -29.0368,-0.5079 -30.4384,-1.5859 -1.4017,-1.0779 -19.1767,-2.7623 -39.5,-3.743 -20.3234,-0.9807 -38.0411,-2.8473 -39.3726,-4.148 -1.3316,-1.3008 -9.0046,-2.365 -17.0512,-2.365 -8.0467,0 -15.339,-1.1468 -16.2053,-2.5484 -0.8662,-1.4016 -6.6001,-2.5484 -12.7419,-2.5484 -6.1418,0 -11.791,-1.0097 -12.5537,-2.2438 -0.7627,-1.2341 -11.1471,-3.0568 -23.0764,-4.0505 -11.9293,-0.9938 -22.335,-2.851 -23.1237,-4.1272 -0.7888,-1.2762 -5.8858,-2.3204 -11.3269,-2.3204 -5.441,0 -10.5687,-1.0938 -11.3949,-2.4306 -0.8262,-1.3369 -8.3479,-3.2052 -16.7149,-4.1518 -8.367,-0.9466 -15.2127,-2.5876 -15.2127,-3.6467 0,-1.0591 -6.3073,-2.7136 -14.0162,-3.6768 -7.7088,-0.9631 -14.0161,-2.8154 -14.0161,-4.1162 0,-1.3008 -2.7992,-2.365 -6.2206,-2.365 -3.4213,0 -6.8303,-0.9866 -7.5756,-2.1925 -0.7452,-1.2058 -6.449,-2.8906 -12.6749,-3.744 -6.226,-0.8534 -15.2224,-3.7434 -19.992,-6.4223 -4.7696,-2.679 -12.5305,-5.7183 -17.2466,-6.7541 -4.716,-1.0358 -12.414,-4.0398 -17.1067,-6.6755 -4.6927,-2.6358 -9.79,-4.7923 -11.3274,-4.7923 -3.2425,0 -35.9293,-15.5996 -37.8239,-18.0513 -0.7008,-0.9068 -4.1412,-2.5337 -7.6452,-3.6152 -3.504,-1.0815 -9.6126,-4.6764 -13.5746,-7.9886 -3.9619,-3.3122 -8.2263,-6.0223 -9.4764,-6.0223 -3.0797,0 -33.2663,-20.5144 -38.4092,-26.1024 -2.2668,-2.463 -5.1645,-4.4782 -6.4393,-4.4782 -3.3824,0 -36.5844,-34.0037 -36.5844,-37.4677 0,-1.6151 -2.8669,-5.1917 -6.3709,-7.948 l -6.371,-5.0114 v -49.8135 c 0,-30.4601 0.9901,-50.4254 2.5484,-51.3885 1.5571,-0.9623 2.5484,-20.7881 2.5484,-50.9677 0,-27.166 0.9767,-49.9964 2.1704,-50.7342 1.1937,-0.7377 2.9874,-21.1606 3.986,-45.3842 0.9986,-24.2236 2.8888,-44.4251 4.2005,-44.8923 1.3118,-0.4673 2.385,-6.4201 2.385,-13.2287 0,-6.8085 0.9965,-12.995 2.2144,-13.7477 1.218,-0.7528 3.0152,-10.548 3.9939,-21.7672 0.9786,-11.2192 2.715,-20.9768 3.8587,-21.6836 1.1436,-0.7068 2.8923,-7.7921 3.8859,-15.7451 0.9937,-7.9531 2.8479,-16.5691 4.1204,-19.1466 1.2726,-2.5776 3.3148,-6.731 4.5381,-9.2298 1.2234,-2.4989 3.0401,-8.5194 4.0371,-13.3791 2.2549,-10.9918 7.1587,-22.8518 9.4485,-22.8518 0.9481,0 2.4795,-3.4403 3.403,-7.6452 0.9235,-4.2048 2.4824,-7.6451 3.4641,-7.6451 0.9817,0 4.0099,-5.7339 6.7295,-12.742 2.7195,-7.008 5.7616,-12.7419 6.7602,-12.7419 0.9986,0 2.6308,-2.5803 3.6272,-5.7339 0.9963,-3.1536 3.9405,-7.2323 6.5427,-9.0638 2.6021,-1.8315 4.7311,-4.7706 4.7311,-6.5313 0,-1.7607 3.4404,-6.4974 7.6452,-10.5258 4.2048,-4.0285 7.6452,-8.3316 7.6452,-9.5624 0,-2.9042 27.0125,-29.9376 29.9145,-29.9376 1.2181,0 6.1667,-4.1249 10.9968,-9.1663 4.8302,-5.0414 11.0758,-10.1992 13.879,-11.4617 5.4894,-2.4722 14.495,-7.8832 16.5645,-9.9527 2.5748,-2.5748 11.5931,-7.8352 15.9274,-9.2906 2.4528,-0.8235 4.4597,-2.5104 4.4597,-3.7485 0,-1.2382 1.3428,-2.2512 2.9841,-2.2512 4.16,0 36.327,-15.7573 37.3654,-18.3038 0.4672,-1.1458 3.0085,-2.0833 5.6474,-2.0833 2.6388,0 8.5638,-1.6245 13.1666,-3.61 4.6028,-1.9855 12.5558,-5.4258 17.6733,-7.6452 5.1174,-2.2193 11.0703,-4.0351 13.2286,-4.0351 2.1583,0 4.5525,-1.0168 5.3206,-2.2595 0.768,-1.2428 5.7095,-3.1471 10.981,-4.2318 5.2715,-1.0848 11.3048,-2.4522 13.4072,-3.0388 2.1024,-0.5865 6.9762,-1.6793 10.8306,-2.4284 3.8545,-0.7491 7.0081,-2.271 7.0081,-3.382 0,-1.111 5.7326,-2.8084 12.7391,-3.772 7.0065,-0.9637 13.3814,-2.7915 14.1665,-4.0618 0.7851,-1.2703 5.3735,-2.3096 10.1964,-2.3096 4.8229,0 8.769,-0.9986 8.769,-2.2191 0,-1.2205 8.001,-3.0075 17.7801,-3.9711 9.779,-0.9636 18.4475,-2.832 19.2633,-4.1519 0.8157,-1.3199 6.0026,-2.3998 11.5263,-2.3998 5.5238,0 10.0432,-1.0275 10.0432,-2.2832 0,-1.2557 9.1742,-3.0952 20.3871,-4.0878 11.2129,-0.9926 20.3871,-2.8321 20.3871,-4.0878 0,-6.06 11.5233,-1.0378 22.5355,9.8217 13.158,12.9756 19.4446,17.7451 26.5209,20.1212 2.4528,0.8236 4.4597,2.258 4.4597,3.1876 0,0.9295 5.7339,3.9152 12.7419,6.6347 7.0081,2.7195 12.742,5.8389 12.742,6.932 0,1.093 1.2601,1.9874 2.8003,1.9874 2.7559,0 17.0813,5.7822 25.9247,10.4641 2.4835,1.3148 9.9375,3.0297 16.5645,3.8108 6.62709,0.7811 14.34269,2.3977 17.14599,3.5925 11.057,4.7127 24.744,5.8829 68.8064,5.8829 44.0625,0 57.7495,-1.1702 68.8065,-5.8829 2.8032,-1.1948 10.7843,-2.8478 17.7357,-3.6734 6.9514,-0.8255 13.7748,-2.6368 15.1629,-4.0249 1.3882,-1.3882 5.1615,-2.524 8.3852,-2.524 3.2237,0 5.8613,-1.0556 5.8613,-2.3459 0,-1.2902 3.4403,-3.1015 7.6452,-4.025 4.2048,-0.9236 7.6451,-2.4824 7.6451,-3.4641 0,-0.9817 5.7339,-4.01 12.742,-6.7295 7.008,-2.7195 12.7419,-5.7052 12.7419,-6.6347 0,-0.9296 2.0069,-2.364 4.4597,-3.1876 7.4932,-2.516 14.1156,-7.4821 26.8323,-20.1212 10.9387,-10.872 22.2241,-15.8595 22.2241,-9.8217 0,1.2557 9.1807,3.0958 20.4015,4.0891 11.2207,0.9932 21.036,2.8327 21.8116,4.0878 0.7757,1.255 5.2887,2.2819 10.0289,2.2819 4.7402,0 9.2342,0.996 9.9866,2.2135 0.7524,1.2174 9.4209,3.007 19.2633,3.9769 9.8424,0.9698 17.8952,2.8407 17.8952,4.1574 0,1.3168 3.9461,2.3941 8.769,2.3941 4.8229,0 9.3959,1.0144 10.1622,2.2543 0.7663,1.2399 6.8545,3.0674 13.5294,4.0611 6.6749,0.9937 13.283,2.607 14.6846,3.5851 3.7635,2.6263 19.0274,7.3867 29.9717,9.3473 5.2715,0.9444 10.1513,2.6341 10.844,3.7548 0.6927,1.1208 5.8405,2.8118 11.4396,3.7577 5.5991,0.946 10.1802,2.7659 10.1802,4.0443 0,1.2785 1.589,2.3244 3.5313,2.3244 1.9422,0 6.8159,1.7131 10.8306,3.8069 4.0146,2.0938 9.784,3.814 12.8209,3.8226 3.0368,0.01 5.9037,0.9469 6.3709,2.085 0.4672,1.1381 11.7439,7.4854 25.0592,14.105 23.6346,11.7499 33.0966,16.9223 35.6774,19.5031 2.0695,2.0695 11.0751,7.4805 16.5645,9.9527 2.8032,1.2625 9.0488,6.4203 13.879,11.4617 4.8302,5.0414 9.7813,9.1663 11.0026,9.1663 2.9652,0 29.9087,26.1085 29.9087,28.9818 0,1.2404 4.0115,6.9813 8.9144,12.7577 17.8275,21.0035 17.4432,20.3855 35.0543,56.3734 14.3885,29.4027 22.2894,50.5261 22.2894,59.592 0,2.9655 1.0643,5.3918 2.365,5.3918 1.3008,0 3.155,6.3224 4.1204,14.0498 0.9655,7.7274 2.7682,14.6757 4.006,15.4407 1.2378,0.765 2.2505,5.1077 2.2505,9.6503 0,4.5426 1.0858,9.3487 2.4129,10.6802 1.327,1.3315 3.2117,13.0286 4.1882,25.9935 0.9765,12.965 2.7576,23.5726 3.9581,23.5726 1.2005,0 2.1828,8.4097 2.1828,18.6882 0,10.2785 0.8601,19.5483 1.9113,20.5995 2.2923,2.2923 3.2513,22.18 4.7718,98.9623 0.687,34.6926 2.1342,57.9758 3.6035,57.9758 1.4889,0 2.4553,19.1056 2.4553,48.5411 0,48.5037 -0.01,48.5455 -6.371,54.4454 -3.504,3.2475 -6.3709,6.9505 -6.3709,8.2289 0,2.9374 -33.7693,36.5911 -36.7167,36.5911 -1.202,0 -4.0402,2.0152 -6.307,4.4782 -5.1429,5.588 -35.3295,26.1024 -38.4092,26.1024 -1.2501,0 -5.5145,2.618 -9.4764,5.8177 -7.8723,6.3577 -54.2601,29.8597 -58.9365,29.8597 -1.5963,0 -6.7419,2.1565 -11.4346,4.7923 -4.6927,2.6357 -12.3907,5.6397 -17.1067,6.6755 -4.716,1.0358 -12.477,4.0751 -17.2466,6.7541 -4.7696,2.6789 -13.766,5.5689 -19.992,6.4223 -6.2259,0.8534 -11.9297,2.5382 -12.6749,3.744 -0.7453,1.2059 -4.1543,2.1925 -7.5756,2.1925 -3.4213,0 -6.2206,1.0642 -6.2206,2.365 0,1.3008 -6.3073,3.1531 -14.0161,4.1162 -7.7089,0.9632 -14.0162,2.6177 -14.0162,3.6768 0,1.0591 -6.8457,2.7001 -15.2127,3.6467 -8.3669,0.9466 -15.8887,2.8149 -16.7149,4.1518 -0.8262,1.3368 -5.9539,2.4306 -11.3949,2.4306 -5.441,0 -10.5381,1.0442 -11.3269,2.3204 -0.7887,1.2762 -11.1944,3.1334 -23.1237,4.1272 -11.9293,0.9937 -22.3137,2.8164 -23.0764,4.0505 -0.7627,1.2341 -6.4796,2.2438 -12.7041,2.2438 -6.2245,0 -11.3173,1.1468 -11.3173,2.5484 0,1.4376 -7.2204,2.5484 -16.5645,2.5484 -9.1105,0 -16.5646,1.0276 -16.5646,2.2835 0,1.2558 -16.9149,3.0243 -37.5887,3.9299 -20.6738,0.9055 -39.3088,2.5678 -41.4113,3.6939 -2.1024,1.1261 -16.9555,2.0599 -33.0069,2.075 -19.613,0.018 -29.5031,0.9833 -30.156,2.9419 -1.4347,4.3044 -209.72169,3.9454 -213.47929,-0.3679 z"
     id="path7817" />
  <path
     style="fill:#ffffff;fill-rule:evenodd;stroke-width:2.54839"
     d="m 1801.3447,1588.8304 c -0.8617,-40.9849 -2.6154,-74.1366 -4.0107,-75.8178 -1.3637,-1.6431 -3.0401,-12.1602 -3.7254,-23.3712 -0.6853,-11.2111 -1.9601,-24.9709 -2.8328,-30.5774 -0.8727,-5.6064 -2.2439,-15.6407 -3.0471,-22.2983 -0.8032,-6.6577 -2.3435,-12.1049 -3.423,-12.1049 -1.0794,0 -2.7371,-6.8457 -3.6837,-15.2127 -0.9466,-8.367 -2.8149,-15.8887 -4.1518,-16.7149 -1.3368,-0.8262 -2.4306,-6.0216 -2.4306,-11.5454 0,-5.5237 -1.0034,-10.0431 -2.2298,-10.0431 -1.2264,0 -2.9735,-3.7183 -3.8824,-8.2629 -2.0975,-10.4872 -7.2925,-22.3178 -9.8002,-22.3178 -1.0595,0 -1.9263,-2.2249 -1.9263,-4.9444 0,-2.7194 -3.4403,-11.5753 -7.6451,-19.6797 -4.2049,-8.1044 -7.6452,-16.7088 -7.6452,-19.1208 0,-2.412 -2.129,-5.8839 -4.7312,-7.7154 -2.6021,-1.8315 -5.5464,-5.9102 -6.5427,-9.0638 -0.9963,-3.1537 -2.7899,-5.7339 -3.9857,-5.7339 -1.1958,0 -2.8942,-3.2785 -3.7743,-7.2856 -0.8801,-4.0071 -5.5584,-10.7899 -10.3961,-15.0729 -4.8377,-4.283 -8.7958,-9.6053 -8.7958,-11.8273 0,-2.222 -1.7202,-4.04 -3.8226,-4.04 -2.1024,0 -3.8226,-1.2365 -3.8226,-2.7477 0,-2.9552 -20.235,-22.7362 -23.258,-22.7362 -1.0022,0 -6.2246,-4.3587 -11.6055,-9.686 -5.3808,-5.3273 -11.4922,-10.5004 -13.5808,-11.4958 -2.0887,-0.9954 -7.2379,-4.0781 -11.4428,-6.8505 -4.2048,-2.7723 -9.3653,-5.8378 -11.4677,-6.8121 -2.1024,-0.9744 -5.2575,-3.7631 -7.0112,-6.1973 -1.7538,-2.4341 -6.6276,-5.181 -10.8307,-6.1042 -4.2031,-0.9231 -7.642,-2.7341 -7.642,-4.0243 0,-1.2903 -1.1389,-2.3459 -2.5309,-2.3459 -4.791,0 -22.854,-8.8082 -23.9568,-11.6823 -0.7639,-1.9906 8.0632,-3.313 28.619,-4.2876 19.8342,-0.9404 32.2672,-2.7523 37.3687,-5.4459 4.2049,-2.2202 9.9387,-4.0815 12.7419,-4.1363 2.8033,-0.055 10.8307,-3.4871 17.8388,-7.6273 7.008,-4.1402 14.4621,-8.3235 16.5645,-9.2962 2.1024,-0.9727 6.1526,-4.4281 9.0005,-7.6787 2.8478,-3.2506 6.4344,-5.9102 7.9702,-5.9102 1.5358,0 4.2134,-1.7123 5.9503,-3.8052 2.3165,-2.7913 5.9643,-3.3834 13.691,-2.2225 5.7932,0.8704 11.6226,2.5827 12.9541,3.8051 1.3315,1.2224 6.711,2.2226 11.9544,2.2226 5.2435,0 10.1927,1.0665 10.9983,2.37 0.8056,1.3035 8.0406,3.0997 16.0778,3.9916 8.0372,0.8918 16.9066,2.6059 19.7098,3.809 2.8033,1.203 7.9637,2.8106 11.4678,3.5723 17.3131,3.7636 30.5806,8.0032 30.5806,9.7719 0,1.083 2.1535,1.969 4.7856,1.969 5.2055,0 16.7189,4.3351 38.537,14.51 7.7089,3.595 16.8831,7.8051 20.3871,9.3556 7.9842,3.5331 21.3829,12.4597 22.5107,14.9973 0.4673,1.0512 2.3256,1.9113 4.1297,1.9113 1.8042,0 7.7292,4.5861 13.1667,10.1913 5.4375,5.6052 11.3199,10.1923 13.0719,10.1936 1.752,0 3.1855,1.4896 3.1855,3.3076 0,1.818 4.5871,7.7846 10.1936,13.2591 5.6064,5.4746 10.1935,11.188 10.1935,12.6966 0,1.5085 2.2936,4.3959 5.0968,6.4163 2.8032,2.0205 5.0968,5.0002 5.0968,6.6216 0,1.6213 1.7201,4.3755 3.8225,6.1204 2.1025,1.7448 3.8226,5.4353 3.8226,8.2011 0,4.7137 6.9767,19.5575 10.5186,22.3795 0.8795,0.7008 2.4128,6.142 3.4072,12.0915 0.9944,5.9495 2.855,11.4644 4.1347,12.2552 1.2796,0.7909 2.3266,7.0086 2.3266,13.8172 0,6.8085 1.1609,12.7661 2.5798,13.2391 1.419,0.4729 3.3121,10.3553 4.2071,21.9608 0.8949,11.6055 2.6009,21.7028 3.7911,22.4383 1.1902,0.7356 2.1639,9.2295 2.1639,18.8753 0,9.6459 1.1468,18.2467 2.5484,19.1129 3.9923,2.4674 3.3939,147.6942 -0.6371,154.634 -4.4083,7.5895 -11.5912,14.8338 -14.7078,14.8338 -1.4317,0 -3.9093,2.8669 -5.5058,6.371 -1.5966,3.504 -4.2391,6.3709 -5.8722,6.3709 -1.6331,0 -5.6626,2.867 -8.9545,6.371 -3.2919,3.504 -7.5055,6.371 -9.3636,6.371 -1.8581,0 -3.3783,1.1249 -3.3783,2.4998 0,1.3749 -2.867,3.2194 -6.371,4.0988 -3.504,0.8795 -6.371,2.5304 -6.371,3.6687 0,1.1383 -3.495,2.8373 -7.7667,3.7755 -4.2716,0.9382 -9.1454,3.9252 -10.8306,6.6378 -1.7433,2.8062 -7.1829,5.5938 -12.6204,6.4675 -5.256,0.8445 -9.5565,2.4114 -9.5565,3.4819 0,1.0706 -2.9934,2.6978 -6.6521,3.616 -3.6587,0.9183 -11.3995,3.7125 -17.2016,6.2094 -15.5455,6.6896 -35.9828,13.0607 -41.8969,13.0607 -2.8487,0 -5.5617,1.1355 -6.0289,2.5234 -0.4672,1.3878 -8.0168,3.2714 -16.7769,4.1856 -8.7601,0.9142 -15.9274,2.6456 -15.9274,3.8476 0,1.2019 -4.4062,2.1853 -9.7915,2.1853 h -9.7914 z"
     id="path7819" />
  <path
     style="fill:#ffffff;fill-rule:evenodd;stroke-width:2.54839"
     d="m 1540.5687,1067.5867 c 0,-1.4016 -3.946,-2.5484 -8.769,-2.5484 -4.8229,0 -9.416,-1.0469 -10.2069,-2.3266 -0.7908,-1.2797 -6.013,-3.0996 -11.6048,-4.0443 -5.5917,-0.9447 -10.8139,-2.7647 -11.6047,-4.0443 -0.7909,-1.2797 -3.5819,-2.3267 -6.2023,-2.3267 -2.6204,0 -6.4846,-1.7202 -8.587,-3.8226 -2.1024,-2.1024 -4.9545,-3.8226 -6.3381,-3.8226 -1.3835,0 -6.8622,-4.5871 -12.1748,-10.1935 -5.3127,-5.6065 -10.6464,-10.1936 -11.8527,-10.1936 -2.5766,0 -18.6487,-11.7944 -26.0452,-19.1129 -2.8331,-2.8033 -7.3597,-6.32022 -10.0593,-7.81551 -2.6995,-1.49529 -6.1316,-4.89305 -7.6268,-7.55059 -1.4953,-2.65756 -6.2656,-8.40629 -10.6007,-12.77494 -4.335,-4.36867 -10.0295,-11.57857 -12.6543,-16.02199 -2.6248,-4.44341 -5.7088,-8.07894 -6.8534,-8.07894 -6.259,0 -5.9266,-22.62583 0.4119,-28.03226 2.207,-1.88242 7.5378,-10.68768 10.2585,-16.94446 1.3098,-3.01216 4.513,-7.02587 7.1182,-8.91935 4.6323,-3.36668 13.4236,-19.50352 13.4236,-24.63962 0,-1.42337 0.8601,-2.97022 1.9113,-3.43744 3.1832,-1.41471 17.0361,-20.72771 20.7165,-28.88171 1.8979,-4.20484 4.5281,-9.73958 5.8449,-12.29941 1.3168,-2.55986 3.0629,-10.30058 3.8803,-17.20161 0.8173,-6.90106 2.473,-12.54737 3.6794,-12.54737 1.2064,0 2.1934,-2.79925 2.1934,-6.22056 0,-3.42131 1.047,-6.86765 2.3267,-7.65852 1.2796,-0.79086 3.0996,-6.01302 4.0443,-11.60479 0.9447,-5.59177 2.7647,-10.81393 4.0443,-11.60479 1.2797,-0.79087 2.3267,-6.3014 2.3267,-12.24562 0,-5.94421 1.1772,-11.98491 2.6161,-13.42378 1.4389,-1.43885 3.3188,-8.54885 4.1775,-15.79999 0.8588,-7.25114 2.3952,-13.18388 3.4142,-13.18388 1.019,0 2.4161,-11.7 3.1047,-26 0.7802,-16.20184 2.3491,-26.36571 4.1633,-26.97043 1.9329,-0.64432 2.9113,-9.84051 2.9113,-27.36573 0,-14.51742 0.9775,-26.99947 2.1723,-27.73789 1.1948,-0.73843 2.993,-22.13163 3.9959,-47.54046 1.6338,-41.39039 1.3756,-46.6929 -2.4814,-50.95484 -7.4098,-8.18775 -2.9862,-12.59195 12.6473,-12.59195 7.6702,0 14.6545,-1.14677 15.5207,-2.54838 1.9558,-3.16453 113.4032,-3.51038 113.4032,-0.35192 0,1.20806 7.5339,2.96833 16.7419,3.91172 9.208,0.94338 18.9556,2.82191 21.6613,4.1745 2.7057,1.35258 7.1974,3.60602 9.9816,5.00763 2.7842,1.40162 6.4206,2.54839 8.0809,2.54839 4.947,0 35.2763,15.51959 35.2763,18.05097 0,1.28487 1.5202,2.33613 3.3784,2.33613 1.858,0 6.0716,2.86693 9.3635,6.37096 3.2919,3.50404 7.0572,6.37097 8.3673,6.37097 3.3377,0 14.4709,10.89161 14.5242,14.20901 0.025,1.50769 2.9109,5.43461 6.415,8.72648 3.504,3.29186 6.3709,7.50547 6.3709,9.36357 0,1.8581 0.9511,3.37836 2.1134,3.37836 2.4148,0 18.2737,30.57219 18.2737,35.22735 0,2.90627 4.9005,12.99571 7.6452,15.74039 1.3432,1.34326 2.178,5.40701 4.3222,21.04017 0.7221,5.26483 2.3386,10.2063 3.5921,10.98104 1.2536,0.77474 2.2792,7.41885 2.2792,14.76468 0,7.34583 1.4082,14.76422 3.1293,16.48531 4.5634,4.56338 4.6174,153.73164 0.056,155.25259 -1.9724,0.65774 -3.1855,5.83359 -3.1855,13.5918 0,6.89127 -1.1467,12.52958 -2.5483,12.52958 -1.4017,0 -2.5484,2.64774 -2.5484,5.88389 0,3.23615 -1.6837,8.10994 -3.7416,10.83064 -2.0578,2.72071 -3.778,7.527 -3.8226,10.68063 -0.044,3.15363 -1.0812,5.73387 -2.3037,5.73387 -1.2225,0 -2.9408,4.49092 -3.8185,9.97984 -0.8777,5.48889 -2.4577,10.36268 -3.5112,10.83064 -1.0534,0.46794 -3.9329,4.86452 -6.3988,9.77016 -2.4659,4.90565 -6.743,12.64637 -9.5047,17.20162 -2.7616,4.55524 -4.1844,8.31712 -3.1617,8.35975 1.0228,0.0426 -0.211,1.28197 -2.7414,2.75407 -2.5305,1.47212 -5.6814,5.16428 -7.002,8.20478 -4.3123,9.92875 -8.5243,15.08202 -27.2727,33.36729 -22.1406,21.59365 -34.7202,32.04805 -38.5629,32.04805 -1.5597,0 -2.8358,1.1468 -2.8358,2.5484 0,1.4016 -2.2935,2.5484 -5.0967,2.5484 -2.8033,0 -5.0968,1.1181 -5.0968,2.4847 0,2.7432 -20.5824,12.8056 -26.1935,12.8056 -1.9457,0 -4.3549,0.8172 -5.3537,1.8161 -3.7557,3.7556 -26.1085,10.9218 -34.0738,10.9238 -4.5552,0 -8.2822,1.1488 -8.2822,2.5504 0,1.5574 -11.8925,2.5484 -30.5807,2.5484 -18.6881,0 -30.5806,-0.991 -30.5806,-2.5484 z"
     id="path7821" />
</svg>
