<?xml version="1.0" encoding="UTF-8" standalone="no"?>
<svg
   width="2367"
   height="2247"
   viewBox="0 0 2367 2247"
   version="1.1"
   id="svg10060"
   xmlns="http://www.w3.org/2000/svg"
   xmlns:svg="http://www.w3.org/2000/svg">
  <defs
     id="defs10064" />
  <path
     style="fill:#ffffff;fill-rule:evenodd;stroke-width:5.36918"
     d="m 617.45518,1013.0246 c -92.2533,-30.71845 -156.2832,-93.87548 -196.1598,-193.48537 -44.3201,-110.7096 -38.1394,-276.95137 14.5335,-390.90649 26.6086,-57.56638 101.3258,-104.62303 182.9331,-115.21065 41.7388,-5.41513 134.809,-3.09919 163.3528,4.06485 11.7351,2.94534 12.2612,4.30183 5.6979,14.69261 -46.1825,73.1146 -71.3855,291.74411 -49.9607,433.39579 10.9946,72.69197 39.4913,154.08504 70.0593,200.1051 10.1787,15.32406 10.1764,15.34446 -2.8855,25.38423 -7.1898,5.52628 -15.7213,10.10153 -18.9589,10.16723 -3.2376,0.066 -14.1102,4.2443 -24.1613,9.2859 -27.407,13.7472 -106.5676,15.121 -144.4504,2.5068 z"
     id="path10546" />
  <path
     style="fill:#ffffff;fill-rule:evenodd;stroke-width:5.36918"
     d="m 1162.4265,1065.7588 c -64.3691,-7.8377 -132.5905,-45.0628 -188.46512,-102.83651 -20.9705,-21.68326 -42.4488,-47.88054 -47.7295,-58.2162 -5.2806,-10.33566 -11.2428,-20.00018 -13.2492,-21.4767 -3.3468,-2.463 -10.1244,-16.58936 -33.9028,-70.6634 -21.6215,-49.16887 -30.7501,-109.75529 -30.7501,-204.08738 0,-162.10612 27.0061,-254.83159 95.306,-327.23311 43.06262,-45.64863 87.32182,-67.76298 170.32812,-85.1054 48.9175,-10.22026 68.5162,-11.76228 115.4373,-9.08255 108.8908,6.2189 185.4801,34.73036 241.2446,89.80676 65.5885,64.77919 94.542,155.74696 100.7144,316.42959 2.2755,59.23737 0.8151,82.2961 -7.9913,126.17563 -18.7825,93.58817 -58.7137,178.17636 -113.6449,240.73955 -45.9814,52.36982 -132.7735,98.01532 -201.3907,105.91492 -23.6244,2.7198 -45.3695,4.6328 -48.3226,4.2512 -2.953,-0.3817 -19.8659,-2.459 -37.5842,-4.6164 z"
     id="path10548" />
  <path
     style="fill:#ffffff;fill-rule:evenodd;stroke-width:5.36918"
     d="m 1659.0752,1023.3437 c -7.3826,-2.4856 -27.2845,-10.7202 -44.2265,-18.299 l -30.8037,-13.77971 20.508,-39.2526 c 21.0586,-40.30634 35.1623,-77.45546 52.6128,-138.58229 14.6507,-51.31912 14.6071,-276.85804 -0.066,-343.62724 -12.1208,-55.15387 -27.9077,-104.46436 -39.9963,-124.92865 -12.1285,-20.53189 -5.9632,-23.63006 56.3151,-28.29925 146.5893,-10.99024 248.0571,30.27322 293.6575,119.42046 4.8389,9.45985 15.2645,37.24533 23.1679,61.74552 13.5743,42.07916 14.382,50.49195 14.5878,151.92931 0.2133,105.16693 -0.1024,108.27014 -15.2922,150.33692 -37.8905,104.9343 -92.2946,168.06078 -179.5782,208.36913 -30.2791,13.9832 -42.8868,16.5977 -86.4557,17.9287 -28.0539,0.857 -57.0474,-0.4757 -64.4301,-2.9613 z"
     id="path10550" />
  <path
     style="fill:#ffffff;fill-rule:evenodd;stroke-width:5.36918"
     d="m 348.99638,1742.3246 c -7.3826,-2.4719 -30.3358,-9.6501 -51.0071,-15.9516 -57.0943,-17.4047 -124.1317,-52.7977 -157.1346,-82.9604 l -29.6269,-27.0773 3.0822,-96.7519 c 9.8059,-307.8177 65.2781,-385.0997 323.2778,-450.3796 55.4178,-14.022 68.0999,-13.1662 92.6142,6.2495 28.652,22.6928 59.9361,33.9023 106.0453,37.9973 l 37.5843,3.3379 -36.5283,20.1902 c -20.0906,11.1046 -39.4196,22.5614 -42.9534,25.4595 -3.5338,2.898 -18.8597,14.812 -34.0575,26.4755 -32.3798,24.8498 -68.6938,70.3797 -94.7988,118.8574 -43.2122,80.2462 -67.7497,199.5241 -76.9633,374.1231 -3.809,72.1801 -3.9226,72.3538 -39.5339,60.4304 z"
     id="path10552" />
  <path
     style="fill:#ffffff;fill-rule:evenodd;stroke-width:5.36918"
     d="m 1056.1465,1977.91 c -60.38434,-5.8174 -178.10992,-23.4135 -226.60882,-33.8704 -100.8978,-21.7547 -206.4007,-67.4345 -262.4682,-113.6415 -56.9166,-46.9068 -54.4329,-36.5055 -46.6306,-195.2806 11.4373,-232.7465 36.804,-318.0917 118.4614,-398.5583 28.8313,-28.4108 48.3545,-41.7127 93.2376,-63.5262 31.2237,-15.1749 69.5362,-31.131 85.1388,-35.4579 56.8435,-15.7638 125.7025,-32.7606 154.5441,-38.1468 28.27372,-5.2802 30.24952,-4.8845 46.42672,9.2995 19.9052,17.4526 78.0001,45.851 104.2502,50.9605 99.6353,19.3936 208.1828,-1.4063 264.2524,-50.6361 16.4865,-14.4753 20.2477,-15.5968 36.589,-10.9102 10.0176,2.873 24.3702,5.2236 31.8949,5.2236 17.0722,0 138.189,33.9655 174.3109,48.8831 88.8312,36.6853 138.604,71.8336 173.1217,122.2541 58.395,85.2984 78.6812,178.8204 84.5838,389.9417 l 3.3025,118.1219 -31.1743,30.2255 c -34.9905,33.9257 -90.6606,68.9831 -135.4889,85.3219 -16.4531,5.9968 -34.747,12.9536 -40.6531,15.4596 -59.5758,25.2783 -198.1963,51.4494 -343.6272,64.8756 -68.4808,6.3221 -215.1406,6.0433 -283.4629,-0.539 z"
     id="path10554" />
  <path
     style="fill:#ffffff;fill-rule:evenodd;stroke-width:5.36918"
     d="m 1995.3709,1676.5251 c -7.5033,-138.0952 -20.0272,-225.387 -42.1753,-293.9624 -37.176,-115.1049 -98.6405,-190.4496 -202.8443,-248.6516 l -40.2688,-22.4917 37.5842,-3.3379 c 51.8015,-4.6006 106.1723,-26.9232 121.9315,-50.0606 6.6872,-9.818 59.1933,-0.7624 146.5273,25.2711 38.9903,11.6227 115.6237,44.3115 120.6288,51.4555 1.5742,2.247 11.9334,10.897 23.0205,19.2223 22.8807,17.1811 55.9933,60.0914 69.4304,89.974 25.0347,55.6746 41.9856,179.5865 41.9294,306.5071 -0.022,54.6926 -1.1479,61.6182 -12.0806,74.4533 -29.8823,35.0822 -114.2209,80.7974 -186.5522,101.1194 -13.2887,3.7336 -31.1662,8.9226 -39.7277,11.5311 -33.821,10.3046 -33.4988,10.8303 -37.4032,-61.0296 z"
     id="path10556" />
</svg>
