<?xml version="1.0" encoding="UTF-8" standalone="no"?>
<!-- Created with Inkscape (http://www.inkscape.org/) -->

<svg
   version="1.1"
   id="svg897"
   width="512"
   height="512"
   viewBox="0 0 512 512"
   xmlns="http://www.w3.org/2000/svg"
   xmlns:svg="http://www.w3.org/2000/svg">
  <defs
     id="defs901" />
  <g
     id="g903">
    <path
       style="fill:#ffffff;fill-rule:evenodd;stroke-width:0.611708"
       d="m 237.34289,406.06397 c -2.01864,-0.14441 -3.93175,-0.52272 -4.25137,-0.84068 -0.31962,-0.31797 -1.74853,-0.57812 -3.17537,-0.57812 -1.42683,0 -2.74196,-0.23902 -2.92252,-0.53115 -0.18054,-0.29213 -1.97765,-0.71775 -3.99357,-0.94583 -2.01592,-0.22807 -3.82757,-0.67723 -4.02589,-0.99812 -0.19833,-0.32089 -1.15391,-0.58344 -2.12351,-0.58344 -0.96961,0 -1.9107,-0.23911 -2.09132,-0.53136 -0.18062,-0.29225 -1.49074,-0.71723 -2.91137,-0.9444 -1.42063,-0.22717 -2.8719,-0.63415 -3.22503,-0.90442 -0.35313,-0.27027 -2.36013,-1.01518 -4.46,-1.65537 -2.09988,-0.64019 -3.82031,-1.35795 -3.82318,-1.59504 -0.003,-0.23708 -0.96867,-0.61181 -2.14621,-0.83271 -1.17754,-0.22091 -2.14098,-0.64629 -2.14098,-0.94528 0,-0.299 -0.53429,-0.54363 -1.18732,-0.54363 -0.65302,0 -1.34435,-0.2541 -1.53628,-0.56465 -0.19194,-0.31056 -1.17162,-0.74533 -2.17709,-0.96617 -1.00545,-0.22083 -1.8281,-0.65492 -1.8281,-0.96462 0,-0.30971 -0.26735,-0.56311 -0.5941,-0.56311 -0.32675,0 -2.73535,-1.27872 -5.35245,-2.8416 -2.61709,-1.56289 -5.30889,-3.16055 -5.98177,-3.55036 -3.9657,-2.29743 -5.81123,-3.5761 -5.81123,-4.02628 0,-0.28054 -0.48172,-0.66459 -1.07049,-0.85346 -0.58877,-0.18886 -1.82583,-0.9644 -2.74904,-1.72341 -0.9232,-0.75902 -2.96576,-2.34348 -4.53902,-3.52102 -3.69786,-2.76774 -19.44791,-18.54437 -22.22687,-22.26439 -1.17754,-1.57629 -2.41625,-3.19874 -2.75269,-3.60545 -1.17285,-1.41781 -4.28647,-5.62127 -4.89367,-6.60658 -0.33644,-0.54594 -1.32018,-2.06423 -2.18608,-3.37398 -0.86591,-1.30976 -2.51752,-4.17062 -3.67025,-6.35748 -1.15274,-2.18686 -2.30233,-4.06786 -2.55466,-4.18001 -0.25233,-0.11215 -0.45878,-0.59387 -0.45878,-1.07049 0,-0.47662 -0.2628,-0.86659 -0.58399,-0.86659 -0.3212,0 -0.76474,-0.96344 -0.98564,-2.14098 -0.22091,-1.17753 -0.64629,-2.14097 -0.94529,-2.14097 -0.29899,0 -0.54363,-0.55054 -0.54363,-1.22342 0,-0.67288 -0.24463,-1.22342 -0.54363,-1.22342 -0.29899,0 -0.72437,-0.96344 -0.94528,-2.14098 -0.22091,-1.17754 -0.66444,-2.14098 -0.98564,-2.14098 -0.32119,0 -0.58399,-0.51692 -0.58399,-1.14871 0,-1.14887 -1.3489,-4.96298 -2.45076,-6.92971 -0.32163,-0.57407 -0.76375,-2.16297 -0.98248,-3.53088 -0.21874,-1.36791 -0.63682,-2.63489 -0.92907,-2.81551 -0.29225,-0.18062 -0.53136,-1.0829 -0.53136,-2.00508 0,-0.92217 -0.27355,-1.95024 -0.6079,-2.28458 -0.33434,-0.33435 -0.78646,-2.31629 -1.0047,-4.4043 -0.21824,-2.08802 -0.63286,-3.7964 -0.92137,-3.7964 -0.28851,0 -0.52457,-1.18366 -0.52457,-2.63035 0,-1.44669 -0.34408,-2.97443 -0.76463,-3.39498 -0.58331,-0.58331 -0.76464,-5.97231 -0.76464,-22.72497 0,-16.75266 0.18133,-22.14166 0.76464,-22.72497 0.42055,-0.42055 0.76463,-1.94829 0.76463,-3.39498 0,-1.44669 0.23606,-2.63035 0.52457,-2.63035 0.28851,0 0.70313,-1.70838 0.92137,-3.7964 0.21824,-2.08801 0.67036,-4.06995 1.0047,-4.4043 0.33435,-0.33434 0.6079,-1.36241 0.6079,-2.28458 0,-0.92218 0.23911,-1.82446 0.53136,-2.00508 0.29225,-0.18062 0.71033,-1.4476 0.92907,-2.81551 0.21873,-1.36791 0.63419,-2.95681 0.92323,-3.53088 1.43385,-2.84783 2.51001,-5.7958 2.51001,-6.87576 0,-0.66147 0.2628,-1.20266 0.58399,-1.20266 0.3212,0 0.76473,-0.96344 0.98564,-2.14098 0.22091,-1.17754 0.64629,-2.14098 0.94528,-2.14098 0.299,0 0.54363,-0.53429 0.54363,-1.18732 0,-0.65302 0.25409,-1.34435 0.56465,-1.53628 0.31055,-0.19194 0.74533,-1.17162 0.96617,-2.17709 0.22083,-1.00545 0.65491,-1.8281 0.96462,-1.8281 0.30971,0 0.56311,-0.41291 0.56311,-0.91757 0,-0.50466 0.27527,-0.91756 0.6117,-0.91756 0.33644,0 0.61171,-0.31373 0.61171,-0.69719 0,-0.38345 1.23871,-2.75809 2.75269,-5.27699 1.51398,-2.51888 2.75269,-4.77754 2.75269,-5.01923 0,-0.24169 0.55054,-0.93766 1.22342,-1.54661 0.67288,-0.60895 1.22341,-1.46374 1.22341,-1.89954 0,-0.4358 0.3507,-1.01249 0.77932,-1.28154 0.42863,-0.26905 1.30492,-1.31498 1.94732,-2.3243 0.6424,-1.00932 1.4616,-2.16789 1.82044,-2.5746 0.35885,-0.40671 1.61589,-2.03014 2.79343,-3.60764 2.77333,-3.7153 18.5469,-19.48887 22.2622,-22.2622 1.5775,-1.17754 3.20093,-2.43458 3.60764,-2.79343 0.40671,-0.35884 1.56528,-1.17804 2.5746,-1.82044 1.00932,-0.6424 2.05525,-1.51869 2.3243,-1.94732 0.26905,-0.42862 0.84574,-0.77932 1.28154,-0.77932 0.4358,0 1.29059,-0.55053 1.89954,-1.22341 0.60895,-0.67288 1.31165,-1.22342 1.56155,-1.22342 0.24992,0 2.20295,-1.05871 4.34009,-2.35269 2.13713,-1.29397 4.91795,-2.83932 6.1796,-3.43409 1.26165,-0.59478 2.29391,-1.30344 2.29391,-1.57482 0,-0.27137 0.82265,-0.67409 1.8281,-0.89492 1.00547,-0.22084 1.98515,-0.65562 2.17709,-0.96617 0.19193,-0.31056 0.88326,-0.56465 1.53628,-0.56465 0.65303,0 1.18732,-0.24463 1.18732,-0.54363 0,-0.29899 0.96344,-0.72437 2.14098,-0.94528 1.17754,-0.22091 2.14098,-0.66444 2.14098,-0.98564 0,-0.32119 0.51692,-0.58399 1.14871,-0.58399 1.14887,0 4.96298,-1.3489 6.92971,-2.45076 0.57407,-0.32163 2.16297,-0.76375 3.53088,-0.98248 1.36791,-0.21874 2.63489,-0.63682 2.81551,-0.92907 0.18062,-0.29224 1.12171,-0.53136 2.09132,-0.53136 0.9696,0 1.9197,-0.25367 2.11131,-0.56371 0.19162,-0.31004 2.13475,-0.75501 4.31806,-0.98882 2.18332,-0.23381 3.96967,-0.66832 3.96967,-0.96556 0,-0.29725 1.18366,-0.54045 2.63035,-0.54045 1.44669,0 2.97443,-0.34408 3.39498,-0.76463 1.10686,-1.10686 44.34308,-1.10686 45.44994,0 0.42055,0.42055 1.79441,0.76463 3.05302,0.76463 1.25862,0 2.43374,0.23516 2.61137,0.52258 0.17764,0.28742 2.02378,0.70036 4.10253,0.91763 2.07876,0.21727 4.083,0.63334 4.45387,0.9246 0.37087,0.29126 1.36248,0.68515 2.20358,0.87532 4.63899,1.04885 7.16607,1.737 8.25807,2.24876 2.99809,1.40505 6.05234,2.46332 7.10935,2.46332 0.63179,0 1.14871,0.27527 1.14871,0.61171 0,0.33644 0.31665,0.61171 0.70367,0.61171 0.71297,0 6.03006,2.32768 9.38952,4.11049 7.28477,3.86589 9.99365,5.37879 11.41104,6.37302 0.89303,0.62642 1.88263,1.13895 2.1991,1.13895 0.31647,0 1.07362,0.55054 1.68257,1.22342 0.60895,0.67288 1.35593,1.22341 1.65995,1.22341 0.46351,0 2.88679,1.73579 6.40492,4.58782 0.41502,0.33644 2.03822,1.57515 3.6071,2.75269 3.94318,2.95958 16.98543,15.91789 21.24065,21.10394 4.50314,5.48821 4.30085,5.22526 5.65937,7.3564 0.63784,1.00058 1.51039,2.03935 1.93901,2.3084 0.42863,0.26905 0.77933,0.84574 0.77933,1.28154 0,0.4358 0.55053,1.29059 1.22341,1.89954 0.67288,0.60895 1.22342,1.3661 1.22342,1.68257 0,0.31647 0.51314,1.30607 1.1403,2.1991 0.62717,0.89303 2.1871,3.55058 3.46652,5.90566 1.27941,2.35508 2.96843,5.46642 3.75336,6.91409 0.78494,1.44767 1.42716,3.03047 1.42716,3.51732 0,0.48686 0.24463,0.8852 0.54363,0.8852 0.29899,0 0.72437,0.96344 0.94528,2.14098 0.2209,1.17754 0.59563,2.14333 0.83271,2.14621 0.23709,0.003 0.95485,1.7233 1.59504,3.82318 0.64019,2.09987 1.3851,4.10687 1.65537,4.46 0.27027,0.35313 0.67725,1.8044 0.90442,3.22503 0.22717,1.42063 0.65215,2.73075 0.9444,2.91137 0.29225,0.18062 0.53136,1.0829 0.53136,2.00508 0,0.92217 0.27355,1.95024 0.6079,2.28458 0.33435,0.33435 0.78646,2.31629 1.0047,4.4043 0.21825,2.08802 0.63286,3.7964 0.92137,3.7964 0.28852,0 0.52457,1.18366 0.52457,2.63035 0,1.44669 0.34408,2.97443 0.76463,3.39498 0.58331,0.58331 0.76464,5.97231 0.76464,22.72497 0,16.75266 -0.18133,22.14166 -0.76464,22.72497 -0.42055,0.42055 -0.76463,1.67676 -0.76463,2.79157 0,1.11482 -0.26179,2.50493 -0.58174,3.08913 -0.31996,0.58421 -0.75213,2.64065 -0.96038,4.56987 -0.20825,1.92923 -0.63463,3.66591 -0.94753,3.85928 -0.31289,0.19338 -0.56889,1.14492 -0.56889,2.11452 0,0.96961 -0.25132,1.91825 -0.55849,2.10808 -0.30716,0.18984 -0.7541,1.50303 -0.99319,2.9182 -0.23909,1.41517 -0.669,2.99652 -0.95536,3.51412 -1.0581,1.91255 -2.38663,5.71284 -2.38663,6.82702 0,0.63179 -0.2628,1.14871 -0.58399,1.14871 -0.32119,0 -0.76474,0.96344 -0.98564,2.14098 -0.22091,1.17754 -0.64629,2.14098 -0.94528,2.14098 -0.299,0 -0.54363,0.39834 -0.54363,0.8852 0,0.48685 -0.72485,2.20728 -1.61077,3.82318 -0.88592,1.61589 -2.57554,4.72722 -3.75471,6.91408 -1.17918,2.18686 -2.65649,4.70678 -3.28291,5.59981 -0.62642,0.89303 -1.13895,1.88263 -1.13895,2.1991 0,0.31647 -0.55054,1.07362 -1.22342,1.68257 -0.67288,0.60895 -1.22341,1.46374 -1.22341,1.89954 0,0.4358 -0.3507,1.01249 -0.77933,1.28154 -0.42862,0.26905 -1.30117,1.30782 -1.93901,2.3084 -1.35886,2.13168 -1.15727,1.86966 -5.65997,7.3564 -4.30928,5.25107 -17.32009,18.18724 -21.2257,21.10394 -1.57678,1.17754 -3.19963,2.43459 -3.60634,2.79343 -0.40671,0.35884 -1.56528,1.17804 -2.5746,1.82044 -1.00932,0.6424 -2.05525,1.51869 -2.3243,1.94731 -0.26905,0.42863 -0.84574,0.77933 -1.28154,0.77933 -0.4358,0 -1.29059,0.55053 -1.89954,1.22341 -0.60895,0.67288 -1.3661,1.22342 -1.68257,1.22342 -0.31647,0 -1.30607,0.51253 -2.1991,1.13895 -1.41739,0.99423 -4.12627,2.50713 -11.41104,6.37302 -3.35946,1.78281 -8.67655,4.11049 -9.38952,4.11049 -0.38702,0 -0.70367,0.27527 -0.70367,0.61171 0,0.33644 -0.51692,0.61171 -1.14871,0.61171 -1.14887,0 -4.96298,1.3489 -6.92971,2.45076 -0.57407,0.32163 -2.16297,0.76375 -3.53088,0.98248 -1.36791,0.21874 -2.63489,0.63682 -2.81551,0.92907 -0.18062,0.29225 -1.12171,0.53136 -2.09132,0.53136 -0.9696,0 -1.92114,0.256 -2.11452,0.56889 -0.19337,0.3129 -1.93005,0.73928 -3.85928,0.94753 -1.92922,0.20825 -3.98566,0.64042 -4.56987,0.96038 -0.5842,0.31995 -1.97431,0.58174 -3.08913,0.58174 -1.11481,0 -2.35268,0.32575 -2.75081,0.72388 -0.73263,0.73263 -33.26608,1.27841 -41.42284,0.69492 z"
       id="path1046" />
    <path
       style="fill:#ffffff;fill-rule:evenodd;stroke-width:0.611708"
       d="m 56.372151,414.37765 c -0.512284,-0.5983 -1.431395,-1.86286 -2.042469,-2.81012 -1.062693,-1.64734 -1.595529,-2.32439 -4.438369,-5.63962 -0.693268,-0.80847 -1.260489,-1.65119 -1.260489,-1.87271 0,-0.22152 -0.486061,-0.93639 -1.080136,-1.5886 -0.594075,-0.65221 -2.030203,-2.69981 -3.191396,-4.55023 -1.161193,-1.85042 -2.260562,-3.50203 -2.443044,-3.67025 -0.18248,-0.16822 -0.873465,-1.33812 -1.535522,-2.59976 -0.662056,-1.26165 -1.386569,-2.29391 -1.610028,-2.29391 -0.223459,0 -0.563113,-0.62483 -0.754785,-1.38852 -0.191673,-0.76368 -0.840869,-1.94976 -1.442658,-2.63572 -1.204685,-1.37318 -2.16909,-3.06222 -5.910144,-10.35091 -1.381471,-2.69152 -2.721087,-4.98542 -2.976924,-5.09757 -0.255838,-0.11215 -0.46516,-0.58079 -0.46516,-1.04143 0,-0.46064 -1.101075,-2.9282 -2.446833,-5.48346 -1.345759,-2.55527 -2.446834,-4.93534 -2.446834,-5.28907 0,-0.35372 -0.44556,-1.64816 -0.990132,-2.87655 -1.697618,-3.82929 -2.511149,-5.82343 -3.344309,-8.19758 -0.442749,-1.26165 -1.024968,-2.29391 -1.293821,-2.29391 -0.268853,0 -0.488823,-0.57775 -0.488823,-1.2839 0,-0.70614 -0.374364,-2.1513 -0.831919,-3.21147 -1.117642,-2.5896 -2.838332,-8.51893 -2.838332,-9.78062 0,-0.55919 -0.239806,-1.01672 -0.532902,-1.01672 -0.293095,0 -0.713979,-1.36504 -0.935296,-3.0334 -0.221318,-1.66838 -0.669684,-3.1986 -0.99637,-3.4005 -0.3266861,-0.2019 -0.5939745,-1.03903 -0.5939745,-1.86027 0,-0.82124 -0.2429284,-1.49317 -0.5398401,-1.49317 -0.2969123,0 -0.7331296,-2.06268 -0.9693714,-4.58373 -0.2362418,-2.52105 -0.6814854,-4.73945 -0.9894311,-4.92977 -0.3079451,-0.19032 -0.5598998,-1.27699 -0.5598998,-2.41481 0,-1.13783 -0.2519548,-2.2245 -0.5598999,-2.41482 -0.3079456,-0.19032 -0.7400651,-2.47753 -0.9602664,-5.08269 -0.2202013,-2.60516 -0.5710571,-5.14957 -0.7796797,-5.65423 -0.9610198,-2.32471 -3.0938938,-28.681 -3.0938938,-38.23178 0,-9.86927 2.1201501,-36.45449 3.0977373,-38.84348 0.2065086,-0.50466 0.5556349,-3.04907 0.7758362,-5.65423 0.2202013,-2.60516 0.6523208,-4.89237 0.9602664,-5.08269 0.3079451,-0.19032 0.5598999,-1.27699 0.5598999,-2.41482 0,-1.13782 0.2519547,-2.22449 0.5598998,-2.41481 0.3079457,-0.19032 0.7531893,-2.40872 0.9894311,-4.92977 0.2362418,-2.52105 0.6724591,-4.58373 0.9693714,-4.58373 0.2969117,0 0.5398401,-0.67193 0.5398401,-1.49317 0,-0.82124 0.2672884,-1.65837 0.5939745,-1.86027 0.326686,-0.2019 0.775052,-1.73212 0.99637,-3.4005 0.221317,-1.66836 0.642201,-3.0334 0.935296,-3.0334 0.293096,0 0.532902,-0.45753 0.532902,-1.01672 0,-1.26169 1.72069,-7.19102 2.838332,-9.78062 0.457555,-1.06017 0.831919,-2.50533 0.831919,-3.21147 0,-0.70615 0.206451,-1.28605 0.458781,-1.28867 0.485172,-0.005 1.988053,-2.9139 1.988053,-3.84792 0,-0.30262 0.412903,-1.48645 0.917562,-2.63073 l 1.835126,-4.161 c 0.504659,-1.14427 0.917563,-2.3699 0.917563,-2.72363 0,-0.35372 1.101075,-2.73379 2.446834,-5.28906 1.345758,-2.55526 2.446833,-5.02282 2.446833,-5.48346 0,-0.46064 0.209322,-0.92928 0.46516,-1.04143 0.255837,-0.11215 1.595453,-2.40605 2.976924,-5.09757 3.741054,-7.28869 4.705459,-8.97773 5.910144,-10.35091 0.601789,-0.68596 1.250985,-1.87204 1.442658,-2.63572 0.191672,-0.76369 0.531326,-1.38852 0.754785,-1.38852 0.223459,0 0.947972,-1.03226 1.610028,-2.29391 0.662057,-1.26164 1.353042,-2.43154 1.535522,-2.59976 0.182482,-0.16822 1.281851,-1.81983 2.443044,-3.67025 1.161193,-1.85042 2.597321,-3.89802 3.191396,-4.55023 0.594075,-0.65221 1.080136,-1.36708 1.080136,-1.5886 0,-0.22152 0.567221,-1.06424 1.260489,-1.87271 2.855838,-3.33039 3.379523,-3.99831 4.510005,-5.75217 0.650475,-1.009172 1.501572,-2.155076 1.891328,-2.546458 0.537934,-0.540179 5.963257,4.544528 22.521025,21.107088 11.996802,12.00028 21.812379,22.03548 21.812379,22.30044 0,0.26497 -1.10108,1.97223 -2.446839,3.79392 -1.345758,1.82169 -2.446833,3.57624 -2.446833,3.89901 0,0.32277 -0.240848,0.67861 -0.535215,0.79076 -0.662927,0.25255 -5.58187,8.2581 -5.58187,9.08444 0,0.33052 -0.233789,0.60094 -0.519524,0.60094 -0.285742,0 -1.03035,1.23871 -1.654684,2.75269 -0.62434,1.51398 -1.332124,2.75269 -1.572855,2.75269 -0.240726,0 -0.619068,0.8258 -0.840751,1.83512 -0.221683,1.00932 -0.591522,1.83513 -0.821867,1.83513 -0.455649,0 -2.54253,4.52219 -2.54253,5.50957 0,0.33413 -0.275268,0.60751 -0.611708,0.60751 -0.33644,0 -0.612859,0.34409 -0.614272,0.76464 -0.0012,0.42055 -0.669044,2.07825 -1.483637,3.68379 -0.814594,1.60553 -1.658532,3.72707 -1.875413,4.71452 -0.216881,0.98745 -0.948393,2.94216 -1.625591,4.34378 -0.677192,1.40164 -1.3821,3.47795 -1.566463,4.61403 -0.184357,1.13609 -0.543209,2.06562 -0.797441,2.06562 -0.254239,0 -0.607421,0.75699 -0.784859,1.6822 -0.597725,3.11673 -1.730823,7.18011 -2.29702,8.2373 -0.309207,0.57735 -0.741232,2.57305 -0.960059,4.43488 -0.21882,1.86184 -0.635228,3.38517 -0.925343,3.38517 -0.290121,0 -0.527489,1.08483 -0.527489,2.41073 0,1.3259 -0.250641,2.56564 -0.556985,2.75497 -0.306343,0.18933 -0.751979,2.75181 -0.990301,5.6944 -0.238321,2.9426 -0.650478,5.62544 -0.915905,5.96188 -0.916773,1.16205 -1.318066,9.23913 -1.322024,26.60932 -0.0043,17.61164 0.331069,24.37557 1.318207,26.60932 0.297358,0.67288 0.715204,3.42557 0.928543,6.11708 0.213346,2.69152 0.646772,5.15518 0.963178,5.47479 0.316406,0.31962 0.575287,1.62715 0.575287,2.90562 0,1.27847 0.237368,2.32449 0.527489,2.32449 0.290115,0 0.706523,1.52333 0.925343,3.38517 0.218827,1.86183 0.650852,3.85753 0.960059,4.43488 0.566197,1.05719 1.699295,5.12057 2.29702,8.2373 0.177438,0.92521 0.53062,1.6822 0.784859,1.6822 0.254232,0 0.613084,0.92953 0.797441,2.06562 0.184363,1.13608 0.889271,3.21239 1.566463,4.61403 0.677198,1.40162 1.40871,3.35633 1.625591,4.34378 0.216881,0.98745 1.060819,3.10899 1.875413,4.71452 0.814593,1.60554 1.48223,3.26324 1.483637,3.68379 0.0012,0.42055 0.277832,0.76464 0.614272,0.76464 0.33644,0 0.611708,0.27338 0.611708,0.60751 0,0.98738 2.086881,5.50957 2.54253,5.50957 0.230345,0 0.600184,0.82581 0.821867,1.83513 0.221683,1.00932 0.600025,1.83512 0.840751,1.83512 0.240731,0 0.948515,1.23871 1.572855,2.75269 0.624334,1.51398 1.368942,2.75269 1.654684,2.75269 0.285735,0 0.519524,0.27042 0.519524,0.60094 0,0.82634 4.918943,8.83189 5.58187,9.08444 0.294367,0.11215 0.535215,0.46799 0.535215,0.79076 0,0.32277 1.050144,2.02026 2.333655,3.7722 1.283511,1.75194 2.518937,3.49784 2.745397,3.87978 0.24339,0.41048 -8.567473,9.68865 -21.548055,22.69092 -20.440767,20.47492 -22.024229,21.92124 -22.891224,20.90867 z"
       id="path1048" />
    <path
       style="fill:#ffffff;fill-rule:evenodd;stroke-width:0.611708"
       d="m 367.46298,98.485066 c -2.08065,-1.513979 -4.03967,-2.752688 -4.35338,-2.752688 -0.3137,0 -0.66213,-0.240848 -0.77428,-0.535215 -0.25255,-0.662927 -8.2581,-5.58187 -9.08444,-5.58187 -0.33052,0 -0.60094,-0.222295 -0.60094,-0.493985 0,-0.271697 -1.16989,-1.009723 -2.59976,-1.64007 -1.42987,-0.630342 -2.96351,-1.509122 -3.40809,-1.952843 -0.44458,-0.443727 -1.3392,-0.80677 -1.98805,-0.80677 -0.64885,0 -1.17973,-0.21033 -1.17973,-0.467407 0,-0.491263 -4.46499,-2.591136 -5.50957,-2.591136 -0.33413,0 -0.60751,-0.275268 -0.60751,-0.611708 0,-0.33644 -0.34409,-0.612859 -0.76464,-0.614272 -0.42055,-0.0012 -2.07825,-0.669044 -3.68379,-1.483637 -1.60553,-0.814594 -3.72707,-1.658532 -4.71452,-1.875413 -0.98745,-0.216881 -2.94216,-0.948393 -4.34378,-1.625591 -1.40164,-0.677192 -3.47795,-1.3821 -4.61403,-1.566463 -1.13609,-0.184357 -2.06562,-0.543209 -2.06562,-0.797441 0,-0.254239 -0.75699,-0.607421 -1.6822,-0.784859 -3.11673,-0.597725 -7.18011,-1.730823 -8.2373,-2.29702 -0.57735,-0.309207 -2.57305,-0.741232 -4.43488,-0.960059 -1.86184,-0.21882 -3.38517,-0.635228 -3.38517,-0.925343 0,-0.290121 -1.04602,-0.527489 -2.32449,-0.527489 -1.27847,0 -2.586,-0.258881 -2.90562,-0.575287 -0.31961,-0.316406 -2.78327,-0.749832 -5.47479,-0.963178 -2.69151,-0.213339 -5.4442,-0.631185 -6.11708,-0.928543 -2.23375,-0.987138 -8.99768,-1.32222 -26.60932,-1.318207 -17.37019,0.0037 -25.44727,0.405251 -26.60932,1.322024 -0.33644,0.265427 -3.01928,0.677584 -5.96188,0.915905 -2.94259,0.238322 -5.50507,0.683958 -5.6944,0.990301 -0.18933,0.306344 -1.41282,0.556985 -2.71887,0.556985 -1.30604,0 -2.52233,0.238989 -2.70286,0.53108 -0.18052,0.292096 -1.73476,0.717668 -3.45387,0.945713 -1.7191,0.228045 -3.58334,0.658455 -4.14276,0.956461 -1.03111,0.54929 -5.13392,1.687747 -8.20469,2.276657 -0.92521,0.177438 -1.6822,0.566638 -1.6822,0.864895 0,0.29825 -0.57775,0.542279 -1.28389,0.542279 -1.14065,0 -3.9851,1.029383 -6.68839,2.420476 -0.51571,0.265377 -1.81714,0.675674 -2.89208,0.911769 -1.07494,0.236095 -3.26806,1.095754 -4.87359,1.910348 -1.60554,0.814593 -3.26324,1.48223 -3.68379,1.483637 -0.42055,0.0012 -0.76464,0.277832 -0.76464,0.614272 0,0.33644 -0.32762,0.611708 -0.72804,0.611708 -0.77154,0 -8.53977,3.71561 -9.05929,4.333135 -0.16822,0.199949 -1.47575,0.873746 -2.90562,1.497328 -1.42987,0.623576 -2.59976,1.356066 -2.59976,1.627763 0,0.27169 -0.27042,0.493985 -0.60094,0.493985 -0.82634,0 -8.83189,4.918943 -9.08444,5.58187 -0.11215,0.294367 -0.46799,0.535215 -0.79076,0.535215 -0.32277,0 -2.05585,1.085207 -3.85129,2.411581 L 141.7582,100.55553 119.96871,78.783208 C 107.98448,66.808427 98.179211,56.752286 98.179211,56.436228 c 0,-0.627365 2.474619,-2.858572 3.206819,-2.891385 0.24977,-0.01119 1.07558,-0.554206 1.83512,-1.206696 0.75955,-0.65249 2.04247,-1.753565 2.85094,-2.446834 0.80847,-0.693268 1.65119,-1.260489 1.87271,-1.260489 0.22152,0 0.93639,-0.48172 1.5886,-1.070489 1.46525,-1.322731 7.78108,-5.522455 10.66732,-7.093254 1.17754,-0.640862 2.27861,-1.368875 2.44683,-1.617806 0.16822,-0.248931 0.87668,-0.630485 1.57436,-0.847899 0.69768,-0.217413 1.81494,-0.873869 2.4828,-1.45879 1.341,-1.174474 3.06297,-2.155704 10.31799,-5.879475 2.69152,-1.381471 4.98542,-2.721087 5.09757,-2.976924 0.11215,-0.255838 0.58079,-0.46516 1.04143,-0.46516 0.46064,0 2.9282,-1.101075 5.48346,-2.446833 2.55527,-1.345759 4.93534,-2.446834 5.28906,-2.446834 0.35373,0 1.57936,-0.412904 2.72363,-0.917563 l 4.161,-1.835126 c 1.14428,-0.504659 2.32811,-0.917562 2.63073,-0.917562 0.93402,0 3.84287,-1.502881 3.84792,-1.988053 0.002,-0.25233 0.58252,-0.458781 1.28867,-0.458781 0.70614,0 2.1513,-0.374364 3.21147,-0.831919 2.5896,-1.117642 8.51893,-2.838332 9.78062,-2.838332 0.55919,0 1.01672,-0.239806 1.01672,-0.532902 0,-0.293095 1.36504,-0.713979 3.0334,-0.935296 1.66838,-0.221318 3.1986,-0.669684 3.4005,-0.99637 0.2019,-0.3266861 1.02278,-0.5939745 1.82417,-0.5939745 0.80138,0 1.60985,-0.247222 1.7966,-0.5493827 0.18675,-0.3021602 2.2686,-0.7431102 4.62634,-0.9798885 2.35773,-0.2367783 4.43959,-0.6777284 4.62633,-0.9798885 0.18675,-0.3021607 1.27049,-0.5493827 2.40831,-0.5493827 1.13783,0 2.22157,-0.247222 2.40832,-0.5493828 0.18674,-0.30216 2.33632,-0.7303243 4.77684,-0.9514759 2.44052,-0.2211515 4.98784,-0.6328967 5.66072,-0.9149894 2.05913,-0.8632535 15.94539,-2.0377176 26.91517,-2.2764172 5.71948,-0.1244542 10.81195,-0.4020186 11.31661,-0.6168097 0.50466,-0.21479106 1.19283,-0.28412351 1.52927,-0.15407202 0.33644,0.13005152 5.56655,0.43576842 11.62246,0.67937102 10.6942,0.4301803 24.13637,1.714506 25.99761,2.48393 0.50466,0.2086226 3.04907,0.5594784 5.65423,0.7796797 2.60516,0.2202013 4.89237,0.6523211 5.08269,0.9602664 0.19032,0.3079451 1.27699,0.5598999 2.41482,0.5598999 1.13782,0 2.22156,0.247222 2.40831,0.5493827 0.18674,0.3021601 2.2686,0.7431102 4.62633,0.9798885 2.35774,0.2367783 4.43959,0.6777283 4.62634,0.9798885 0.18675,0.3021607 0.99522,0.5493827 1.7966,0.5493827 0.80139,0 1.62227,0.2672884 1.82417,0.5939745 0.2019,0.326686 1.73212,0.775052 3.4005,0.99637 1.66836,0.221317 3.0334,0.610958 3.0334,0.865868 0,0.25491 0.75699,0.608648 1.6822,0.786085 3.11286,0.596984 7.17362,1.769021 9.11514,2.630854 1.06017,0.470603 2.50533,0.855642 3.21147,0.855642 0.70615,0 1.2839,0.21997 1.2839,0.488823 0,0.268853 1.03226,0.851072 2.29391,1.293821 2.25493,0.791322 4.22602,1.597853 8.35051,3.416878 1.14427,0.504659 2.35758,0.917563 2.69623,0.917563 0.8327,0 7.10115,3.239861 7.34903,3.798355 0.1086,0.244679 1.14086,0.621856 2.29391,0.838169 1.15305,0.216314 2.09646,0.637933 2.09646,0.93693 0,0.298997 0.4129,0.54363 0.91756,0.54363 0.50466,0 0.91756,0.275269 0.91756,0.611709 0,0.33644 0.35168,0.611708 0.7815,0.611708 0.70816,0 3.81035,1.509223 9.58159,4.66147 1.15776,0.632369 2.66626,1.642134 3.35222,2.243924 0.68596,0.601789 1.87204,1.250985 2.63572,1.442658 0.76369,0.191672 1.38852,0.531326 1.38852,0.754785 0,0.223459 1.03226,0.947972 2.29391,1.610028 1.26164,0.662057 2.43154,1.353042 2.59976,1.535522 0.16822,0.182482 1.81983,1.281851 3.67025,2.443044 1.85042,1.161193 3.89802,2.597321 4.55023,3.191396 0.65221,0.594075 1.369,1.080136 1.59287,1.080136 0.22388,0 1.09978,0.619355 1.94647,1.376344 2.21286,1.978439 3.60457,3.060094 5.56156,4.322514 4.54176,2.929815 6.12052,0.755053 -18.10582,24.940984 -12.10209,12.081897 -22.05147,21.967084 -22.10975,21.967084 -0.0583,0 -1.8083,-1.238706 -3.88895,-2.752684 z"
       id="path1050" />
    <path
       style="fill:#ffffff;fill-rule:evenodd;stroke-width:0.611708"
       d="m 255.63704,511.0865 c -0.30735,-0.30735 -5.37507,-0.66755 -11.26161,-0.80045 -11.25246,-0.25405 -25.14733,-1.42467 -27.21892,-2.29314 -0.67288,-0.28209 -3.2202,-0.69384 -5.66072,-0.91499 -2.44052,-0.22115 -4.5901,-0.64932 -4.77684,-0.95148 -0.18675,-0.30216 -1.27049,-0.54938 -2.40832,-0.54938 -1.13782,0 -2.22156,-0.24722 -2.40831,-0.54938 -0.18674,-0.30216 -2.2686,-0.74311 -4.62633,-0.97989 -2.35774,-0.23678 -4.43959,-0.67773 -4.62634,-0.97989 -0.18675,-0.30216 -0.99522,-0.54938 -1.7966,-0.54938 -0.80139,0 -1.62227,-0.26729 -1.82417,-0.59398 -0.2019,-0.32668 -1.73212,-0.77505 -3.4005,-0.99637 -1.66836,-0.22131 -3.0334,-0.6422 -3.0334,-0.93529 0,-0.2931 -0.45753,-0.5329 -1.01672,-0.5329 -1.26169,0 -7.19102,-1.7207 -9.78062,-2.83834 -1.06017,-0.45755 -2.50533,-0.83191 -3.21147,-0.83191 -0.70615,0 -1.2839,-0.24284 -1.2839,-0.53964 0,-0.2968 -1.64926,-1.05379 -3.66502,-1.6822 -2.01576,-0.62841 -3.66738,-1.34901 -3.67025,-1.60134 -0.003,-0.25233 -0.53952,-0.45878 -1.19255,-0.45878 -0.65302,0 -1.34435,-0.2541 -1.53628,-0.56465 -0.19194,-0.31056 -1.22043,-0.75605 -2.28554,-0.98999 -1.06511,-0.23393 -3.96535,-1.49382 -6.44498,-2.79975 -2.47964,-1.30592 -4.88531,-2.37441 -5.34595,-2.37441 -0.46064,0 -0.92928,-0.20932 -1.04143,-0.46516 -0.11215,-0.25583 -2.40605,-1.59545 -5.09757,-2.97692 -7.25502,-3.72377 -8.97699,-4.705 -10.31799,-5.87947 -0.66786,-0.58493 -1.78512,-1.24138 -2.4828,-1.45879 -0.69768,-0.21742 -1.40614,-0.59898 -1.57436,-0.84791 -0.16822,-0.24892 -1.26929,-0.97694 -2.44683,-1.6178 -2.88624,-1.5708 -9.20207,-5.77052 -10.66732,-7.09325 -0.65221,-0.58877 -1.36708,-1.07049 -1.5886,-1.07049 -0.22152,0 -1.06424,-0.56722 -1.87271,-1.26049 -0.80847,-0.69327 -2.09139,-1.79435 -2.85094,-2.44684 -0.75954,-0.65249 -1.58535,-1.1955 -1.83512,-1.20669 -0.24977,-0.0112 -1.12489,-0.57867 -1.944715,-1.26105 l -1.490585,-1.2407 22.08076,-22.08076 22.08076,-22.08076 3.11494,2.23787 c 1.71322,1.23082 3.36664,2.23786 3.67427,2.23786 0.30762,0 0.65107,0.24085 0.76322,0.53522 0.24329,0.63861 8.24326,5.58187 9.03347,5.58187 0.30248,0 0.64171,0.20645 0.75386,0.45878 0.11215,0.25233 1.30498,1.00668 2.65074,1.67634 1.34576,0.66966 2.58447,1.3593 2.75269,1.53253 0.60469,0.62272 8.34731,4.28456 9.05929,4.28456 0.40042,0 0.72804,0.27527 0.72804,0.61171 0,0.33644 0.34409,0.61286 0.76464,0.61426 0.42055,0.001 2.07825,0.66905 3.68379,1.48365 1.60553,0.81459 3.79865,1.67425 4.87359,1.91034 1.07494,0.2361 2.37637,0.64639 2.89208,0.91177 2.70329,1.3911 5.54774,2.42048 6.68839,2.42048 0.70614,0 1.28389,0.27527 1.28389,0.61171 0,0.33644 0.67193,0.6117 1.49317,0.6117 0.82124,0 1.64736,0.24949 1.83581,0.55441 0.18845,0.30492 1.71837,0.74361 3.39982,0.97487 1.68144,0.23125 3.19945,0.65068 3.37335,0.93205 0.1739,0.28138 1.82946,0.70067 3.67902,0.93175 1.84956,0.23109 3.51308,0.66326 3.69671,0.96038 0.18363,0.29712 1.40246,0.54021 2.7085,0.54021 1.30605,0 2.52954,0.25065 2.71887,0.55699 0.18933,0.30634 2.75181,0.75198 5.6944,0.9903 2.9426,0.23832 5.62544,0.65048 5.96188,0.9159 1.06588,0.84091 8.66067,1.29221 26.56006,1.57828 11.48396,0.18354 17.59839,0.0639 18.01481,-0.35254 0.34671,-0.34671 2.34833,-0.63038 4.44805,-0.63038 2.09971,0 3.96225,-0.23395 4.13896,-0.51988 0.17672,-0.28593 2.73176,-0.70516 5.67788,-0.93162 2.94611,-0.22645 5.62551,-0.68068 5.95422,-1.00939 0.32871,-0.32871 1.62743,-0.59766 2.88605,-0.59766 1.25861,0 2.43609,-0.23898 2.61662,-0.53108 0.18052,-0.29209 1.73476,-0.71766 3.45387,-0.94571 1.7191,-0.22805 3.58334,-0.65846 4.14276,-0.95646 1.03111,-0.54929 5.13392,-1.68775 8.20469,-2.27666 0.92521,-0.17744 1.6822,-0.56664 1.6822,-0.86489 0,-0.29826 0.57775,-0.54228 1.28389,-0.54228 1.14065,0 3.9851,-1.02938 6.68839,-2.42048 0.51571,-0.26538 1.81714,-0.67567 2.89208,-0.91177 1.07494,-0.23609 3.26806,-1.09575 4.87359,-1.91034 1.60554,-0.8146 3.26324,-1.48224 3.68379,-1.48365 0.42055,-10e-4 0.76464,-0.27782 0.76464,-0.61426 0,-0.33644 0.32762,-0.61171 0.72804,-0.61171 0.77154,0 8.53977,-3.71561 9.05929,-4.33314 0.16822,-0.19995 1.47575,-0.87374 2.90562,-1.49732 1.42987,-0.62358 2.59976,-1.35607 2.59976,-1.62777 0,-0.27169 0.27042,-0.49398 0.60094,-0.49398 0.82634,0 8.83189,-4.91895 9.08444,-5.58187 0.11215,-0.29437 0.46799,-0.53522 0.79076,-0.53522 0.32277,0 2.07732,-1.10107 3.89901,-2.44683 1.82169,-1.34576 3.52895,-2.44684 3.79391,-2.44684 0.26497,0 10.30017,9.81557 22.30045,21.81238 16.56256,16.55777 21.64727,21.98309 21.10709,22.52102 -0.39138,0.38976 -1.53729,1.24086 -2.54646,1.89133 -1.75386,1.13048 -2.42179,1.65417 -5.75217,4.51001 -0.80847,0.69327 -1.65119,1.26049 -1.87271,1.26049 -0.22152,0 -0.93639,0.48172 -1.5886,1.07049 -1.46526,1.32273 -7.78109,5.52245 -10.66732,7.09325 -1.17754,0.64086 -2.27861,1.36888 -2.44683,1.6178 -0.16822,0.24893 -0.87668,0.63049 -1.57436,0.84791 -0.69769,0.21741 -1.81494,0.87386 -2.4828,1.45879 -1.341,1.17447 -3.06297,2.1557 -10.31799,5.87947 -2.69152,1.38147 -4.98542,2.72109 -5.09757,2.97692 -0.11215,0.25584 -0.58079,0.46516 -1.04143,0.46516 -0.46064,0 -2.9282,1.10108 -5.48346,2.44684 -2.55527,1.34576 -4.93534,2.44683 -5.28907,2.44683 -0.35372,0 -1.57935,0.4129 -2.72362,0.91756 -4.12449,1.81903 -6.09558,2.62556 -8.35051,3.41688 -1.26165,0.44275 -2.29391,1.02497 -2.29391,1.29382 0,0.26885 -0.57775,0.48883 -1.2839,0.48883 -0.70614,0 -2.1513,0.37436 -3.21147,0.83191 -2.5896,1.11764 -8.51893,2.83834 -9.78062,2.83834 -0.55919,0 -1.01672,0.2398 -1.01672,0.5329 0,0.29309 -1.36504,0.71398 -3.0334,0.93529 -1.66838,0.22132 -3.1986,0.66969 -3.4005,0.99637 -0.2019,0.32669 -1.02278,0.59398 -1.82417,0.59398 -0.80138,0 -1.60985,0.24722 -1.7966,0.54938 -0.18675,0.30216 -2.2686,0.74311 -4.62634,0.97989 -2.35773,0.23678 -4.43959,0.67773 -4.62633,0.97989 -0.18675,0.30216 -1.27049,0.54938 -2.40831,0.54938 -1.13783,0 -2.2245,0.25196 -2.41482,0.5599 -0.19032,0.30794 -2.47753,0.73834 -5.08269,0.95642 -2.60516,0.21808 -5.2872,0.62433 -5.96008,0.90277 -2.04694,0.84705 -14.68213,2.01831 -25.99761,2.40994 -5.88769,0.20377 -11.00492,0.56596 -11.37161,0.80485 -0.36669,0.23891 -0.91818,0.18291 -1.22552,-0.12444 z"
       id="path1052" />
    <path
       style="fill:#ffffff;fill-rule:evenodd;stroke-width:0.611708"
       d="m 432.97092,391.94979 -21.52848,-21.70524 2.41259,-3.26581 c 1.32693,-1.7962 2.41259,-3.52989 2.41259,-3.85266 0,-0.32277 0.24085,-0.67861 0.53522,-0.79076 0.66292,-0.25255 5.58187,-8.2581 5.58187,-9.08444 0,-0.33052 0.22229,-0.60094 0.49398,-0.60094 0.2717,0 1.00419,-1.16989 1.62777,-2.59976 0.62358,-1.42987 1.29737,-2.7374 1.49732,-2.90562 0.61753,-0.51952 4.33314,-8.28775 4.33314,-9.05929 0,-0.40042 0.27527,-0.72804 0.61171,-0.72804 0.33644,0 0.61286,-0.34409 0.61426,-0.76464 0.001,-0.42055 0.66905,-2.07825 1.48365,-3.68379 0.81459,-1.60553 1.67425,-3.79865 1.91034,-4.87359 0.2361,-1.07494 0.64639,-2.37637 0.91177,-2.89208 1.3911,-2.70329 2.42048,-5.54774 2.42048,-6.68839 0,-0.70614 0.24402,-1.28389 0.54228,-1.28389 0.29825,0 0.68745,-0.75699 0.86489,-1.6822 0.58891,-3.07077 1.72737,-7.17358 2.27666,-8.20469 0.298,-0.55942 0.72841,-2.42366 0.95646,-4.14276 0.22805,-1.71911 0.65362,-3.27335 0.94571,-3.45387 0.2921,-0.18053 0.53108,-1.35801 0.53108,-2.61662 0,-1.25862 0.25888,-2.5499 0.57529,-2.86952 0.3164,-0.31961 0.74983,-2.78327 0.96317,-5.47479 0.21335,-2.69151 0.63119,-5.4442 0.92855,-6.11708 0.98714,-2.23375 1.32222,-8.99768 1.31821,-26.60932 -0.004,-17.37019 -0.40525,-25.44727 -1.32203,-26.60932 -0.26542,-0.33644 -0.67758,-3.01928 -0.9159,-5.96188 -0.23832,-2.94259 -0.68396,-5.50507 -0.9903,-5.6944 -0.30634,-0.18933 -0.55699,-1.41282 -0.55699,-2.71887 0,-1.30604 -0.24309,-2.52487 -0.54021,-2.7085 -0.29712,-0.18363 -0.72929,-1.84715 -0.96038,-3.69671 -0.23108,-1.84956 -0.65037,-3.50512 -0.93175,-3.67902 -0.28137,-0.1739 -0.7008,-1.69191 -0.93205,-3.37335 -0.23126,-1.68145 -0.66995,-3.21137 -0.97487,-3.39982 -0.30492,-0.18845 -0.55441,-1.01457 -0.55441,-1.83581 0,-0.82124 -0.27526,-1.49317 -0.6117,-1.49317 -0.33644,0 -0.61171,-0.57775 -0.61171,-1.28389 0,-1.14065 -1.02938,-3.9851 -2.42048,-6.68839 -0.26538,-0.51571 -0.67567,-1.81714 -0.91177,-2.89208 -0.23609,-1.07494 -1.09575,-3.26806 -1.91034,-4.87359 -0.8146,-1.60554 -1.48224,-3.26324 -1.48365,-3.68379 -10e-4,-0.42055 -0.27782,-0.76464 -0.61426,-0.76464 -0.33644,0 -0.61171,-0.32762 -0.61171,-0.72804 0,-0.71198 -3.66184,-8.4546 -4.28456,-9.05929 -0.17323,-0.16822 -0.86287,-1.40693 -1.53253,-2.75269 -0.66966,-1.34576 -1.42401,-2.53859 -1.67634,-2.65074 -0.25233,-0.11215 -0.45878,-0.45138 -0.45878,-0.75386 0,-0.79021 -4.94326,-8.79018 -5.58187,-9.03347 -0.29437,-0.11215 -0.53522,-0.4556 -0.53522,-0.76322 0,-0.30763 -1.00704,-1.96105 -2.23786,-3.67427 l -2.23787,-3.11494 22.08076,-22.08076 22.08076,-22.08076 1.2407,1.490585 c 0.68238,0.819825 1.24985,1.694945 1.26105,1.944715 0.0112,0.24977 0.5542,1.07558 1.20669,1.83512 0.65249,0.75955 1.75357,2.04247 2.44684,2.85094 0.69327,0.80847 1.26049,1.65119 1.26049,1.87271 0,0.22152 0.48172,0.93639 1.07049,1.5886 1.32273,1.46525 5.52245,7.78108 7.09325,10.66732 0.64086,1.17754 1.36888,2.27861 1.6178,2.44683 0.24893,0.16822 0.63049,0.87668 0.84791,1.57436 0.21741,0.69768 0.87386,1.81494 1.45879,2.4828 1.18106,1.34853 2.19198,3.12535 5.87039,10.31799 1.37647,2.69152 2.6737,5.0313 2.88273,5.19952 0.20904,0.16822 0.5819,1.12891 0.8286,2.13485 0.24669,1.00595 0.63979,1.96939 0.87355,2.14098 0.59704,0.43826 3.75995,6.7167 3.75995,7.46357 0,0.33865 0.4129,1.55196 0.91756,2.69623 l 1.83513,4.161 c 0.50466,1.14428 0.91756,2.37461 0.91756,2.73408 0,0.35947 0.55054,1.63377 1.22342,2.83178 0.67288,1.198 1.22342,2.4723 1.22342,2.83177 0,0.35947 0.37823,1.52099 0.84051,2.58116 0.46228,1.06016 1.31394,3.71682 1.89259,5.90367 0.57864,2.18686 1.26745,4.3996 1.53069,4.9172 0.26323,0.5176 0.67423,2.09895 0.91332,3.51411 0.23909,1.41517 0.68603,2.72836 0.99319,2.9182 0.30717,0.18984 0.55849,1.00084 0.55849,1.80223 0,0.80138 0.24722,1.60985 0.54938,1.7966 0.30216,0.18675 0.74311,2.2686 0.97989,4.62634 0.23678,2.35773 0.67773,4.43959 0.97989,4.62633 0.30216,0.18675 0.54938,1.27049 0.54938,2.40831 0,1.13783 0.24722,2.22157 0.54938,2.40832 0.30216,0.18674 0.73681,2.33632 0.96588,4.77684 0.22907,2.44052 0.65361,5.26311 0.94343,6.27243 1.10881,3.86159 2.90904,27.56847 2.92643,38.53763 0.016,10.11176 -1.83755,34.13377 -2.92643,37.92593 -0.28982,1.00932 -0.71436,3.83191 -0.94343,6.27243 -0.22907,2.44052 -0.66372,4.5901 -0.96588,4.77684 -0.30216,0.18675 -0.54938,1.27049 -0.54938,2.40832 0,1.13782 -0.25196,2.22449 -0.5599,2.41481 -0.30794,0.19032 -0.75319,2.40872 -0.98943,4.92977 -0.23624,2.52105 -0.67246,4.58373 -0.96937,4.58373 -0.29691,0 -0.53984,0.67193 -0.53984,1.49317 0,0.82124 -0.26729,1.65837 -0.59398,1.86027 -0.32668,0.2019 -0.77505,1.73212 -0.99637,3.4005 -0.22131,1.66836 -0.6422,3.0334 -0.93529,3.0334 -0.2931,0 -0.5329,0.45753 -0.5329,1.01672 0,1.26169 -1.7207,7.19102 -2.83834,9.78062 -0.45755,1.06017 -0.83191,2.50533 -0.83191,3.21147 0,0.70615 -0.21998,1.2839 -0.48883,1.2839 -0.26885,0 -0.85107,1.03226 -1.29382,2.29391 -0.79132,2.25493 -1.59785,4.22602 -3.41688,8.35051 -0.50466,1.14427 -0.91756,2.3699 -0.91756,2.72362 0,0.35373 -1.10107,2.7338 -2.44683,5.28907 -1.34576,2.55526 -2.44684,5.02282 -2.44684,5.48346 0,0.46064 -0.20932,0.92928 -0.46516,1.04143 -0.25583,0.11215 -1.59545,2.40605 -2.97692,5.09757 -3.72377,7.25502 -4.705,8.97699 -5.87947,10.31799 -0.58493,0.66786 -1.24138,1.78511 -1.45879,2.4828 -0.21742,0.69768 -0.59898,1.40614 -0.84791,1.57436 -0.24892,0.16822 -0.97694,1.26929 -1.6178,2.44683 -1.5708,2.88623 -5.77052,9.20206 -7.09325,10.66732 -0.58877,0.65221 -1.07049,1.36708 -1.07049,1.5886 0,0.22152 -0.56722,1.06424 -1.26049,1.87271 -0.69327,0.80847 -1.79435,2.09139 -2.44684,2.85094 -0.65249,0.75954 -1.1955,1.58535 -1.20669,1.83512 -0.041,0.91413 -2.3403,3.20443 -3.13625,3.12394 -0.45073,-0.0456 -10.50732,-9.85023 -22.34799,-21.78812 z"
       id="path1054" />
    <path
       style="fill:#000000;fill-rule:evenodd;stroke-width:0.738838"
       d="M 189.00796,267.01076 V 161.82777 l 52.32865,0.3327 c 50.41549,0.32053 52.59165,0.39305 59.52161,1.98338 18.89808,4.33686 28.91388,10.55461 38.43569,23.86079 11.26225,15.73832 15.2117,38.10882 10.49484,59.44518 -1.00324,4.53813 -2.11357,8.93416 -2.46742,9.76895 -6.0101,14.17917 -8.22514,18.16784 -14.07689,25.3487 -6.16787,7.56877 -14.32743,13.22741 -24.79539,17.19549 -9.91413,3.75817 -14.10048,4.18594 -45.53358,4.65264 l -29.31128,0.43521 v 33.67146 33.67148 h -22.29811 -22.29812 z m 92.7323,-4.49935 c 11.06048,-2.06356 15.71541,-4.02595 20.44381,-8.6186 4.3824,-4.2566 6.94604,-12.70564 6.94604,-22.89226 0,-14.14463 -4.12781,-22.06779 -14.02625,-26.92276 -8.28828,-4.06522 -10.23242,-4.31291 -36.86382,-4.6965 l -24.63585,-0.35484 v 32.32151 32.32155 l 21.03937,-0.0146 c 15.39111,-0.0109 22.66554,-0.31736 27.0967,-1.1441 z"
       id="path789" />
  </g>
</svg>
