<?xml version="1.0" encoding="UTF-8" standalone="no"?>
<!-- Created with Inkscape (http://www.inkscape.org/) -->

<svg
   version="1.1"
   id="svg897"
   width="512"
   height="512"
   viewBox="0 0 512 512"
   sodipodi:docname="45261.png"
   inkscape:export-filename="45261.svg"
   inkscape:export-xdpi="96"
   inkscape:export-ydpi="96"
   xmlns:inkscape="http://www.inkscape.org/namespaces/inkscape"
   xmlns:sodipodi="http://sodipodi.sourceforge.net/DTD/sodipodi-0.dtd"
   xmlns="http://www.w3.org/2000/svg"
   xmlns:svg="http://www.w3.org/2000/svg">
  <defs
     id="defs901" />
  <sodipodi:namedview
     id="namedview899"
     pagecolor="#505050"
     bordercolor="#eeeeee"
     borderopacity="1"
     inkscape:showpageshadow="0"
     inkscape:pageopacity="0"
     inkscape:pagecheckerboard="0"
     inkscape:deskcolor="#505050"
     showgrid="false" />
  <g
     inkscape:groupmode="layer"
     inkscape:label="Image"
     id="g903">
    <path
       style="fill:#ffffff;fill-rule:evenodd;stroke-width:0.611708"
       d="m 237.34289,406.06397 c -2.01864,-0.14441 -3.93175,-0.52272 -4.25137,-0.84068 -0.31962,-0.31797 -1.74853,-0.57812 -3.17537,-0.57812 -1.42683,0 -2.74196,-0.23902 -2.92252,-0.53115 -0.18054,-0.29213 -1.97765,-0.71775 -3.99357,-0.94583 -2.01592,-0.22807 -3.82757,-0.67723 -4.02589,-0.99812 -0.19833,-0.32089 -1.15391,-0.58344 -2.12351,-0.58344 -0.96961,0 -1.9107,-0.23911 -2.09132,-0.53136 -0.18062,-0.29225 -1.49074,-0.71723 -2.91137,-0.9444 -1.42063,-0.22717 -2.8719,-0.63415 -3.22503,-0.90442 -0.35313,-0.27027 -2.36013,-1.01518 -4.46,-1.65537 -2.09988,-0.64019 -3.82031,-1.35795 -3.82318,-1.59504 -0.003,-0.23708 -0.96867,-0.61181 -2.14621,-0.83271 -1.17754,-0.22091 -2.14098,-0.64629 -2.14098,-0.94528 0,-0.299 -0.53429,-0.54363 -1.18732,-0.54363 -0.65302,0 -1.34435,-0.2541 -1.53628,-0.56465 -0.19194,-0.31056 -1.17162,-0.74533 -2.17709,-0.96617 -1.00545,-0.22083 -1.8281,-0.65492 -1.8281,-0.96462 0,-0.30971 -0.26735,-0.56311 -0.5941,-0.56311 -0.32675,0 -2.73535,-1.27872 -5.35245,-2.8416 -2.61709,-1.56289 -5.30889,-3.16055 -5.98177,-3.55036 -3.9657,-2.29743 -5.81123,-3.5761 -5.81123,-4.02628 0,-0.28054 -0.48172,-0.66459 -1.07049,-0.85346 -0.58877,-0.18886 -1.82583,-0.9644 -2.74904,-1.72341 -0.9232,-0.75902 -2.96576,-2.34348 -4.53902,-3.52102 -3.69786,-2.76774 -19.44791,-18.54437 -22.22687,-22.26439 -1.17754,-1.57629 -2.41625,-3.19874 -2.75269,-3.60545 -1.17285,-1.41781 -4.28647,-5.62127 -4.89367,-6.60658 -0.33644,-0.54594 -1.32018,-2.06423 -2.18608,-3.37398 -0.86591,-1.30976 -2.51752,-4.17062 -3.67025,-6.35748 -1.15274,-2.18686 -2.30233,-4.06786 -2.55466,-4.18001 -0.25233,-0.11215 -0.45878,-0.59387 -0.45878,-1.07049 0,-0.47662 -0.2628,-0.86659 -0.58399,-0.86659 -0.3212,0 -0.76474,-0.96344 -0.98564,-2.14098 -0.22091,-1.17753 -0.64629,-2.14097 -0.94529,-2.14097 -0.29899,0 -0.54363,-0.55054 -0.54363,-1.22342 0,-0.67288 -0.24463,-1.22342 -0.54363,-1.22342 -0.29899,0 -0.72437,-0.96344 -0.94528,-2.14098 -0.22091,-1.17754 -0.66444,-2.14098 -0.98564,-2.14098 -0.32119,0 -0.58399,-0.51692 -0.58399,-1.14871 0,-1.14887 -1.3489,-4.96298 -2.45076,-6.92971 -0.32163,-0.57407 -0.76375,-2.16297 -0.98248,-3.53088 -0.21874,-1.36791 -0.63682,-2.63489 -0.92907,-2.81551 -0.29225,-0.18062 -0.53136,-1.0829 -0.53136,-2.00508 0,-0.92217 -0.27355,-1.95024 -0.6079,-2.28458 -0.33434,-0.33435 -0.78646,-2.31629 -1.0047,-4.4043 -0.21824,-2.08802 -0.63286,-3.7964 -0.92137,-3.7964 -0.28851,0 -0.52457,-1.18366 -0.52457,-2.63035 0,-1.44669 -0.34408,-2.97443 -0.76463,-3.39498 -0.58331,-0.58331 -0.76464,-5.97231 -0.76464,-22.72497 0,-16.75266 0.18133,-22.14166 0.76464,-22.72497 0.42055,-0.42055 0.76463,-1.94829 0.76463,-3.39498 0,-1.44669 0.23606,-2.63035 0.52457,-2.63035 0.28851,0 0.70313,-1.70838 0.92137,-3.7964 0.21824,-2.08801 0.67036,-4.06995 1.0047,-4.4043 0.33435,-0.33434 0.6079,-1.36241 0.6079,-2.28458 0,-0.92218 0.23911,-1.82446 0.53136,-2.00508 0.29225,-0.18062 0.71033,-1.4476 0.92907,-2.81551 0.21873,-1.36791 0.63419,-2.95681 0.92323,-3.53088 1.43385,-2.84783 2.51001,-5.7958 2.51001,-6.87576 0,-0.66147 0.2628,-1.20266 0.58399,-1.20266 0.3212,0 0.76473,-0.96344 0.98564,-2.14098 0.22091,-1.17754 0.64629,-2.14098 0.94528,-2.14098 0.299,0 0.54363,-0.53429 0.54363,-1.18732 0,-0.65302 0.25409,-1.34435 0.56465,-1.53628 0.31055,-0.19194 0.74533,-1.17162 0.96617,-2.17709 0.22083,-1.00545 0.65491,-1.8281 0.96462,-1.8281 0.30971,0 0.56311,-0.41291 0.56311,-0.91757 0,-0.50466 0.27527,-0.91756 0.6117,-0.91756 0.33644,0 0.61171,-0.31373 0.61171,-0.69719 0,-0.38345 1.23871,-2.75809 2.75269,-5.27699 1.51398,-2.51888 2.75269,-4.77754 2.75269,-5.01923 0,-0.24169 0.55054,-0.93766 1.22342,-1.54661 0.67288,-0.60895 1.22341,-1.46374 1.22341,-1.89954 0,-0.4358 0.3507,-1.01249 0.77932,-1.28154 0.42863,-0.26905 1.30492,-1.31498 1.94732,-2.3243 0.6424,-1.00932 1.4616,-2.16789 1.82044,-2.5746 0.35885,-0.40671 1.61589,-2.03014 2.79343,-3.60764 2.77333,-3.7153 18.5469,-19.48887 22.2622,-22.2622 1.5775,-1.17754 3.20093,-2.43458 3.60764,-2.79343 0.40671,-0.35884 1.56528,-1.17804 2.5746,-1.82044 1.00932,-0.6424 2.05525,-1.51869 2.3243,-1.94732 0.26905,-0.42862 0.84574,-0.77932 1.28154,-0.77932 0.4358,0 1.29059,-0.55053 1.89954,-1.22341 0.60895,-0.67288 1.31165,-1.22342 1.56155,-1.22342 0.24992,0 2.20295,-1.05871 4.34009,-2.35269 2.13713,-1.29397 4.91795,-2.83932 6.1796,-3.43409 1.26165,-0.59478 2.29391,-1.30344 2.29391,-1.57482 0,-0.27137 0.82265,-0.67409 1.8281,-0.89492 1.00547,-0.22084 1.98515,-0.65562 2.17709,-0.96617 0.19193,-0.31056 0.88326,-0.56465 1.53628,-0.56465 0.65303,0 1.18732,-0.24463 1.18732,-0.54363 0,-0.29899 0.96344,-0.72437 2.14098,-0.94528 1.17754,-0.22091 2.14098,-0.66444 2.14098,-0.98564 0,-0.32119 0.51692,-0.58399 1.14871,-0.58399 1.14887,0 4.96298,-1.3489 6.92971,-2.45076 0.57407,-0.32163 2.16297,-0.76375 3.53088,-0.98248 1.36791,-0.21874 2.63489,-0.63682 2.81551,-0.92907 0.18062,-0.29224 1.12171,-0.53136 2.09132,-0.53136 0.9696,0 1.9197,-0.25367 2.11131,-0.56371 0.19162,-0.31004 2.13475,-0.75501 4.31806,-0.98882 2.18332,-0.23381 3.96967,-0.66832 3.96967,-0.96556 0,-0.29725 1.18366,-0.54045 2.63035,-0.54045 1.44669,0 2.97443,-0.34408 3.39498,-0.76463 1.10686,-1.10686 44.34308,-1.10686 45.44994,0 0.42055,0.42055 1.79441,0.76463 3.05302,0.76463 1.25862,0 2.43374,0.23516 2.61137,0.52258 0.17764,0.28742 2.02378,0.70036 4.10253,0.91763 2.07876,0.21727 4.083,0.63334 4.45387,0.9246 0.37087,0.29126 1.36248,0.68515 2.20358,0.87532 4.63899,1.04885 7.16607,1.737 8.25807,2.24876 2.99809,1.40505 6.05234,2.46332 7.10935,2.46332 0.63179,0 1.14871,0.27527 1.14871,0.61171 0,0.33644 0.31665,0.61171 0.70367,0.61171 0.71297,0 6.03006,2.32768 9.38952,4.11049 7.28477,3.86589 9.99365,5.37879 11.41104,6.37302 0.89303,0.62642 1.88263,1.13895 2.1991,1.13895 0.31647,0 1.07362,0.55054 1.68257,1.22342 0.60895,0.67288 1.35593,1.22341 1.65995,1.22341 0.46351,0 2.88679,1.73579 6.40492,4.58782 0.41502,0.33644 2.03822,1.57515 3.6071,2.75269 3.94318,2.95958 16.98543,15.91789 21.24065,21.10394 4.50314,5.48821 4.30085,5.22526 5.65937,7.3564 0.63784,1.00058 1.51039,2.03935 1.93901,2.3084 0.42863,0.26905 0.77933,0.84574 0.77933,1.28154 0,0.4358 0.55053,1.29059 1.22341,1.89954 0.67288,0.60895 1.22342,1.3661 1.22342,1.68257 0,0.31647 0.51314,1.30607 1.1403,2.1991 0.62717,0.89303 2.1871,3.55058 3.46652,5.90566 1.27941,2.35508 2.96843,5.46642 3.75336,6.91409 0.78494,1.44767 1.42716,3.03047 1.42716,3.51732 0,0.48686 0.24463,0.8852 0.54363,0.8852 0.29899,0 0.72437,0.96344 0.94528,2.14098 0.2209,1.17754 0.59563,2.14333 0.83271,2.14621 0.23709,0.003 0.95485,1.7233 1.59504,3.82318 0.64019,2.09987 1.3851,4.10687 1.65537,4.46 0.27027,0.35313 0.67725,1.8044 0.90442,3.22503 0.22717,1.42063 0.65215,2.73075 0.9444,2.91137 0.29225,0.18062 0.53136,1.0829 0.53136,2.00508 0,0.92217 0.27355,1.95024 0.6079,2.28458 0.33435,0.33435 0.78646,2.31629 1.0047,4.4043 0.21825,2.08802 0.63286,3.7964 0.92137,3.7964 0.28852,0 0.52457,1.18366 0.52457,2.63035 0,1.44669 0.34408,2.97443 0.76463,3.39498 0.58331,0.58331 0.76464,5.97231 0.76464,22.72497 0,16.75266 -0.18133,22.14166 -0.76464,22.72497 -0.42055,0.42055 -0.76463,1.67676 -0.76463,2.79157 0,1.11482 -0.26179,2.50493 -0.58174,3.08913 -0.31996,0.58421 -0.75213,2.64065 -0.96038,4.56987 -0.20825,1.92923 -0.63463,3.66591 -0.94753,3.85928 -0.31289,0.19338 -0.56889,1.14492 -0.56889,2.11452 0,0.96961 -0.25132,1.91825 -0.55849,2.10808 -0.30716,0.18984 -0.7541,1.50303 -0.99319,2.9182 -0.23909,1.41517 -0.669,2.99652 -0.95536,3.51412 -1.0581,1.91255 -2.38663,5.71284 -2.38663,6.82702 0,0.63179 -0.2628,1.14871 -0.58399,1.14871 -0.32119,0 -0.76474,0.96344 -0.98564,2.14098 -0.22091,1.17754 -0.64629,2.14098 -0.94528,2.14098 -0.299,0 -0.54363,0.39834 -0.54363,0.8852 0,0.48685 -0.72485,2.20728 -1.61077,3.82318 -0.88592,1.61589 -2.57554,4.72722 -3.75471,6.91408 -1.17918,2.18686 -2.65649,4.70678 -3.28291,5.59981 -0.62642,0.89303 -1.13895,1.88263 -1.13895,2.1991 0,0.31647 -0.55054,1.07362 -1.22342,1.68257 -0.67288,0.60895 -1.22341,1.46374 -1.22341,1.89954 0,0.4358 -0.3507,1.01249 -0.77933,1.28154 -0.42862,0.26905 -1.30117,1.30782 -1.93901,2.3084 -1.35886,2.13168 -1.15727,1.86966 -5.65997,7.3564 -4.30928,5.25107 -17.32009,18.18724 -21.2257,21.10394 -1.57678,1.17754 -3.19963,2.43459 -3.60634,2.79343 -0.40671,0.35884 -1.56528,1.17804 -2.5746,1.82044 -1.00932,0.6424 -2.05525,1.51869 -2.3243,1.94731 -0.26905,0.42863 -0.84574,0.77933 -1.28154,0.77933 -0.4358,0 -1.29059,0.55053 -1.89954,1.22341 -0.60895,0.67288 -1.3661,1.22342 -1.68257,1.22342 -0.31647,0 -1.30607,0.51253 -2.1991,1.13895 -1.41739,0.99423 -4.12627,2.50713 -11.41104,6.37302 -3.35946,1.78281 -8.67655,4.11049 -9.38952,4.11049 -0.38702,0 -0.70367,0.27527 -0.70367,0.61171 0,0.33644 -0.51692,0.61171 -1.14871,0.61171 -1.14887,0 -4.96298,1.3489 -6.92971,2.45076 -0.57407,0.32163 -2.16297,0.76375 -3.53088,0.98248 -1.36791,0.21874 -2.63489,0.63682 -2.81551,0.92907 -0.18062,0.29225 -1.12171,0.53136 -2.09132,0.53136 -0.9696,0 -1.92114,0.256 -2.11452,0.56889 -0.19337,0.3129 -1.93005,0.73928 -3.85928,0.94753 -1.92922,0.20825 -3.98566,0.64042 -4.56987,0.96038 -0.5842,0.31995 -1.97431,0.58174 -3.08913,0.58174 -1.11481,0 -2.35268,0.32575 -2.75081,0.72388 -0.73263,0.73263 -33.26608,1.27841 -41.42284,0.69492 z"
       id="path1046" />
    <path
       style="fill:#000000;fill-rule:evenodd;stroke-width:0.738838"
       d="M 189.00796,267.01076 V 161.82777 l 52.32865,0.3327 c 50.41549,0.32053 52.59165,0.39305 59.52161,1.98338 18.89808,4.33686 28.91388,10.55461 38.43569,23.86079 11.26225,15.73832 15.2117,38.10882 10.49484,59.44518 -1.00324,4.53813 -2.11357,8.93416 -2.46742,9.76895 -6.0101,14.17917 -8.22514,18.16784 -14.07689,25.3487 -6.16787,7.56877 -14.32743,13.22741 -24.79539,17.19549 -9.91413,3.75817 -14.10048,4.18594 -45.53358,4.65264 l -29.31128,0.43521 v 33.67146 33.67148 h -22.29811 -22.29812 z m 92.7323,-4.49935 c 11.06048,-2.06356 15.71541,-4.02595 20.44381,-8.6186 4.3824,-4.2566 6.94604,-12.70564 6.94604,-22.89226 0,-14.14463 -4.12781,-22.06779 -14.02625,-26.92276 -8.28828,-4.06522 -10.23242,-4.31291 -36.86382,-4.6965 l -24.63585,-0.35484 v 32.32151 32.32155 l 21.03937,-0.0146 c 15.39111,-0.0109 22.66554,-0.31736 27.0967,-1.1441 z"
       id="path789" />
  </g>
</svg>
